<?xml version="1.0" standalone="no"?>
<!DOCTYPE svg PUBLIC "-//W3C//DTD SVG 1.1//EN" "http://www.w3.org/Graphics/SVG/1.1/DTD/svg11.dtd" >
<svg xmlns="http://www.w3.org/2000/svg">
<metadata>Generated by IcoMoon</metadata>
<defs>
<font id="icomoon" horiz-adv-x="1024">
<font-face units-per-em="1024" ascent="960" descent="-64" />
<missing-glyph horiz-adv-x="1024" />
<glyph unicode="&#x20;" horiz-adv-x="512" d="" />
<glyph unicode="&#xe900;" glyph-name="arrow-1" d="M784.832 960l-592.832-512 592.832-512 58.816 73.024-508.32 438.976 508.32 438.976z" />
<glyph unicode="&#xe901;" glyph-name="arrow-2" d="M250.816 960l-58.816-73.024 508.32-438.976-508.32-438.976 58.816-73.024 592.832 512z" />
<glyph unicode="&#xe902;" glyph-name="arrow-3" d="M1029.857 716.534l-514.929-596.214-514.929 596.214 73.462 59.146 441.467-511.222 441.467 511.222z" />
<glyph unicode="&#xe903;" glyph-name="arrow-4" d="M0 179.466l514.929 596.214 514.929-596.214-73.462-59.146-441.467 511.222-441.467-511.222z" />
<glyph unicode="&#xe904;" glyph-name="arrow-5" d="M280.576 448.064l485.312 485.312-13.92 13.92-499.232-499.232 499.328-499.328 13.92 13.92z" />
<glyph unicode="&#xe905;" glyph-name="arrow-6" d="M738.112 448.064l-485.312 485.312 13.92 13.92 499.232-499.232-499.328-499.328-13.92 13.92z" />
<glyph unicode="&#xe906;" glyph-name="arrow-7" d="M458.724 903.111l449.877-424.761-908.572-0.057v-60.672l903.851 0.057-445.156-424.761h92.672l445.156 424.761 19.2 17.721 15.872 14.734-30.35 28.217-15.986 14.677-433.863 410.084z" />
<glyph unicode="&#xe907;" glyph-name="arrow-8" d="M509.76 960l-45.184-45.92-432.576-430.752v-91.968l448.064 446.56 0.064-901.888h64l-0.064 897.216 448-441.856v91.968l-448 441.888-18.816 19.072z" />
<glyph unicode="&#xe908;" glyph-name="arrow-9" d="M160-64c224.96 170.624 447.968 339.68 672.992 510.4-225.728 172.288-448.672 342.336-672.992 513.6v-1024z" />
<glyph unicode="&#xe909;" glyph-name="arrow-10" d="M236.992 424.288l469.088-478.016c6.72-6.848 14.432-10.272 23.168-10.272s16.448 3.424 23.168 10.272l50.336 51.296c6.72 6.848 10.080 14.688 10.080 23.584s-3.36 16.768-10.080 23.584l-395.616 403.136 395.616 403.168c6.72 6.848 10.080 14.72 10.080 23.584s-3.36 16.768-10.080 23.616l-50.336 51.264c-6.72 6.848-14.432 10.24-23.168 10.24s-16.448-3.424-23.168-10.24l-469.088-478.016c-6.72-6.848-10.048-14.72-10.048-23.584s3.328-16.768 10.048-23.616z" />
<glyph unicode="&#xe90a;" glyph-name="arrow-11" d="M799.808 471.712l-469.088 478.016c-6.72 6.848-14.432 10.272-23.168 10.272s-16.448-3.424-23.168-10.272l-50.336-51.296c-6.72-6.848-10.080-14.688-10.080-23.584s3.36-16.768 10.080-23.584l395.616-403.136-395.616-403.168c-6.72-6.848-10.080-14.72-10.080-23.584s3.36-16.768 10.080-23.616l50.336-51.264c6.72-6.848 14.432-10.24 23.168-10.24s16.448 3.424 23.168 10.24l469.088 478.016c6.72 6.848 10.048 14.72 10.048 23.584s-3.328 16.768-10.048 23.616z" />
<glyph unicode="&#xe90b;" glyph-name="arrow-12" d="M487.443 173.81l-463.537 454.879c-6.628 6.516-9.961 14.001-9.961 22.454s3.333 15.937 9.961 22.454l49.748 48.798c6.628 6.516 14.243 9.756 22.882 9.756s16.254-3.24 22.882-9.756l390.926-383.609 390.945 383.609c6.628 6.516 14.262 9.756 22.863 9.756 8.639 0 16.254-3.24 22.882-9.756l49.729-48.798c6.628-6.498 9.942-14.001 9.942-22.454s-3.314-15.937-9.942-22.454l-463.537-454.861c-6.628-6.498-14.262-9.756-22.882-9.756s-16.254 3.24-22.9 9.737z" />
<glyph unicode="&#xe90c;" glyph-name="arrow-13" d="M487.443 722.19l-463.537-454.879c-6.628-6.516-9.961-14.001-9.961-22.454s3.333-15.937 9.961-22.454l49.748-48.798c6.628-6.516 14.243-9.756 22.882-9.756s16.254 3.24 22.882 9.756l390.926 383.609 390.945-383.609c6.628-6.516 14.262-9.756 22.863-9.756 8.639 0 16.254 3.24 22.882 9.756l49.729 48.798c6.628 6.498 9.942 14.001 9.942 22.454s-3.314 15.937-9.942 22.454l-463.537 454.861c-6.628 6.498-14.262 9.756-22.882 9.756s-16.254-3.24-22.9-9.737z" />
<glyph unicode="&#xe90d;" glyph-name="arrow-14" d="M1022.991 472.25l-228.649 208.406c-6.352 5.165-13.297 6.159-20.836 2.983s-11.323-8.934-11.323-17.274v-133.387h-743.127c-5.565 0-10.121-1.781-13.698-5.357s-5.357-8.133-5.357-13.698v-114.332c0-5.55 1.781-10.121 5.357-13.683s8.147-5.357 13.698-5.357h743.127v-133.387c0-7.955 3.784-13.698 11.323-17.26 7.554-3.191 14.499-1.989 20.851 3.562l228.649 210.81c3.962 3.962 5.951 8.726 5.951 14.291 0 5.15-1.989 9.706-5.966 13.668z" />
<glyph unicode="&#xe90e;" glyph-name="arrows" d="M18.075 556.925h780.312v-108.83c0-4.953 1.786-9.145 5.358-12.717s7.954-5.358 12.717-5.358c5.358 0 9.74 1.786 13.098 5.168l181.534 181.534c3.382 3.382 5.168 7.74 5.168 13.098s-1.786 9.74-5.168 13.098l-180.938 180.343c-4.572 3.763-9.145 5.763-13.693 5.763-5.358 0-9.74-1.786-13.098-5.168s-5.168-7.74-5.168-13.098v-108.83h-780.121c-4.977 0-9.145-1.786-12.717-5.358s-5.358-7.74-5.358-12.717v-108.83c0-4.977 1.786-9.145 5.358-12.717s7.954-5.358 12.717-5.358zM997.995 339.075h-780.312v108.83c0 4.977-1.786 9.145-5.358 12.717s-7.954 5.358-12.717 5.358c-5.358 0-9.74-1.786-13.098-5.168l-181.319-181.319c-3.382-3.382-5.168-7.74-5.168-13.098 0-4.977 1.786-9.145 5.168-12.502l180.938-181.534c4.572-3.763 9.145-5.763 13.693-5.763 4.977 0 9.145 1.786 12.717 5.358s5.358 7.74 5.358 12.717v108.83h780.312c4.977 0 9.145 1.786 12.717 5.358s5.358 7.74 5.358 12.717v108.83c0 4.977-1.786 9.145-5.358 12.717-3.763 4.167-7.954 5.953-12.907 5.953z" />
<glyph unicode="&#xe90f;" glyph-name="close" d="M31.296 73.024l853.376 853.376 103.456-103.424-853.376-853.376-103.424 103.456zM134.752 926.4l853.376-853.376-103.424-103.424-853.376 853.376 103.424 103.424z" />
<glyph unicode="&#xe910;" glyph-name="company" d="M384.032 758.848h256v42.656h-256v-42.656zM938.656 758.848c47.072 0 85.344-38.272 85.344-85.344v-128c0-47.072-38.272-85.344-85.344-85.344h-341.312v21.344c0 11.808-9.536 21.344-21.344 21.344h-128c-11.808 0-21.344-9.536-21.344-21.344v-21.344h-341.312c-47.072 0-85.344 38.272-85.344 85.344v128c0 47.072 38.272 85.344 85.344 85.344h213.312v42.656c0 47.072 38.272 85.344 85.344 85.344h256c47.072 0 85.344-38.272 85.344-85.344v-42.656h213.312zM1012.16 437.184c7.232-3.616 11.84-11.008 11.84-19.104v-299.2c0-47.072-38.304-85.344-85.344-85.344h-853.28c-47.072 0-85.344 38.272-85.344 85.344v299.2c0 8.096 4.608 15.488 11.84 19.104 7.296 3.616 15.968 2.816 22.4-2.112 15.136-11.488 32.832-17.568 51.136-17.568h341.312v-64c0-11.808 9.536-21.344 21.344-21.344h128c11.776 0 21.344 9.536 21.344 21.344v64h341.28c18.304 0 35.968 6.048 51.136 17.568 6.432 4.864 15.136 5.696 22.4 2.112z" />
<glyph unicode="&#xe911;" glyph-name="company-2" d="M937.779 463.389h-323.379v32.329h-194.033v-32.329h-323.379v194.033h840.763v-194.033zM937.779 107.681h-840.763v258.692h323.379v-32.329h194.033v32.329h323.379v-258.692zM355.708 754.439v64.688h323.379v-64.688h-323.379zM970.108 754.439h-194.033v97.017c0 35.694-28.965 64.688-64.688 64.688h-388.037c-35.694 0-64.688-28.965-64.688-64.688v-97.017h-194.033c-35.694 0-64.688-28.965-64.688-64.688v-614.4c0-35.694 28.965-64.688 64.688-64.688h905.421c35.694 0 64.688 28.965 64.688 64.688v614.4c0 35.694-28.965 64.688-64.688 64.688z" />
<glyph unicode="&#xe912;" glyph-name="date" d="M944 664v96c0 22.048-17.952 40-40 40h-48v-80h-80v80h-528v-80h-80v80h-48c-22.048 0-40-17.952-40-40v-96h864zM944 56v528h-864v-528c0-22.048 17.952-40 40-40h784c22.048 0 40 17.952 40 40zM904 880c66.176 0 120-53.824 120-120v-704c0-66.176-53.824-120-120-120h-784c-66.176 0-120 53.824-120 120v704c0 66.176 53.824 120 120 120h48v80h80v-80h528v80h80v-80h48zM152 420h80v80h-80v-80zM312 420h80v80h-80v-80zM472 420h80v80h-80v-80zM632 420h80v80h-80v-80zM792 420h80v80h-80v-80zM152 260h80v80h-80v-80zM312 260h80v80h-80v-80zM472 260h80v80h-80v-80zM632 260h80v80h-80v-80zM152 100h80v80h-80v-80zM312 100h80v80h-80v-80zM472 100h80v80h-80v-80zM632 100h80v80h-80v-80zM792 260h80v80h-80v-80z" />
<glyph unicode="&#xe913;" glyph-name="date-2" d="M128.096 927.936v-128.096c0-17.728 14.336-32.064 32.064-32.064 17.504 0.224 31.872 14.56 31.872 32.288v127.904c0 17.728-14.336 32.064-32.064 32.064v0c-17.728 0-31.872-14.336-31.872-32.064zM512 575.904h127.904v-128.096h-127.904v128.096zM640.096 927.936v-128.096c0-17.728 14.336-32.064 32.064-32.064s32.064 14.336 32.064 32.064v128.096c0 17.728-14.336 32.064-32.064 32.064v0c-17.952 0-32.064-14.336-32.064-32.064zM1024 192c0 141.408-114.592 256-256 256s-256-114.592-256-256c0-141.408 114.592-256 256-256h0.224c141.184 0 255.776 114.592 255.776 256v0zM768-0.064c-105.952 0-192.064 86.112-192.064 192.064s86.112 192.064 192.064 192.064c105.952 0 192.064-86.112 192.064-192.064s-86.112-192.064-192.064-192.064zM69.44 128.064h378.624v63.936h-378.624c-2.944 0-5.28 2.944-5.28 6.336v441.728h704.064v-128.096h63.936v249.664c0 38.848-31.040 70.272-69.216 70.272h-26.592v-32.064c0-35.232-28.704-63.936-63.936-63.936s-63.936 28.704-63.936 63.936v32.064h-384.096v-32.064c0-35.232-28.704-63.936-63.936-63.936s-63.936 28.704-63.936 63.936v32.064h-27.008c-38.4 0-69.44-31.456-69.44-70.272v-563.296c0-38.848 31.040-70.272 69.44-70.272zM864.032 192h-96.032v96.032c0 17.728-14.336 32.064-32.064 32.064s-32.064-14.336-32.064-32.064v-128.096c0-17.728 14.336-32.064 32.064-32.064h128.096c17.728 0 32.064 14.336 32.064 32.064s-14.336 32.064-32.064 32.064zM319.936 384.064h128.096v-128.096h-128.096v128.096zM128.096 575.904h128.096v-128.096h-128.096v128.096zM319.936 575.904h128.096v-128.096h-128.096v128.096zM128.096 384.064h128.096v-128.096h-128.096v128.096z" />
<glyph unicode="&#xe914;" glyph-name="dropbox" d="M293.984 161.504c-5.952 0-11.552 1.312-16.192 3.84l-71.072 38.432c-1.088 0.576-1.792 0.768-2.176 0.8-0.128-0.352-0.32-1.088-0.32-2.304v-22.080c0-6.656 5.152-15.904 10.816-19.36l275.392-169.568v320.64l-173.728-142.784c-5.856-4.832-14.176-7.616-22.752-7.616zM298.624 209.152v0c4.128 0 8.224 1.344 10.72 3.488l149.792 130.016c1.344 1.152 2.048 2.432 1.984 3.456s-1.024 2.144-2.528 3.072l-267.52 162.4c-2.048 1.248-4.8 1.92-7.776 1.92-4.064 0-7.968-1.248-10.464-3.36l-155.936-132.352c-1.312-1.12-2.016-2.304-1.952-3.2s0.992-1.952 2.464-2.816l273.664-160.768c1.984-1.184 4.672-1.824 7.584-1.824zM185.088 574.88c3.104 0 5.952 0.704 8.032 1.984l286.496 175.104c1.472 0.896 2.368 1.984 2.432 2.912s-0.672 2.144-2.016 3.232l-172.48 143.328c-2.464 2.048-6.336 3.264-10.368 3.264-3.040 0-5.888-0.704-7.968-1.984l-286.816-177.088c-1.472-0.896-2.368-1.984-2.432-2.912s0.704-2.112 2.016-3.2l172.608-141.408c2.496-2.048 6.4-3.264 10.464-3.264zM1021.568 725.632l-286.784 177.056c-2.080 1.28-4.896 1.984-7.968 1.984-4 0-7.872-1.216-10.336-3.264l-172.48-143.264c-1.312-1.088-2.080-2.304-2.016-3.232s0.992-2.016 2.432-2.912l286.464-175.104c2.112-1.28 4.96-1.984 8.032-1.984 4.064 0 7.968 1.216 10.464 3.264l172.544 141.376c1.312 1.088 2.080 2.272 2.016 3.2s-0.96 2.016-2.432 2.912zM1007.2 377.76l-155.968 132.384c-2.496 2.112-6.4 3.36-10.464 3.36-2.976 0-5.76-0.672-7.776-1.92l-267.488-162.4c-1.504-0.928-2.432-2.048-2.528-3.072s0.64-2.272 1.984-3.456l149.888-130.016c2.496-2.144 6.592-3.488 10.688-3.488 2.88 0 5.6 0.64 7.584 1.824l273.568 160.768c1.472 0.864 2.4 1.92 2.464 2.816s-0.64 2.080-1.952 3.2zM817.28 203.776l-71.008-38.432c-4.64-2.528-10.24-3.84-16.192-3.84-8.576 0-16.896 2.752-22.752 7.584l-173.728 142.784v-318.784c0-0.672 0.064-1.216 0.128-1.6 0.352 0.128 0.832 0.352 1.44 0.736l273.76 168.608c5.664 3.488 10.816 12.736 10.816 19.392v22.080c0 1.216-0.192 1.92-0.32 2.272-0.416-0.064-1.12-0.224-2.176-0.8z" />
<glyph unicode="&#xe915;" glyph-name="edit" d="M1003.872 745.312l-194.496 194.528c-26.816 26.88-70.368 26.88-97.216 0l-48.608-48.64c-26.88-26.848-26.88-70.4 0-97.28l194.464-194.496c26.848-26.88 70.368-26.88 97.248 0l48.608 48.64c26.848 26.816 26.848 70.4 0 97.248zM393.92 122.496c-0.288-0.192-0.672-0.448-1.12-0.704-0.224-0.16-0.544-0.32-0.8-0.544s-0.576-0.352-0.928-0.544c-0.32-0.192-0.576-0.352-0.928-0.544-11.296-6.752-44.544-24.256-125.152-53.408-9.44-3.392-19.68-7.008-30.432-10.72l-114.624 114.656c3.712 10.816 7.36 21.152 10.784 30.624 29.088 80.928 46.592 114.24 53.312 125.504 0.192 0.288 0.32 0.544 0.48 0.768 0.224 0.416 0.448 0.768 0.672 1.056 0.16 0.288 0.32 0.544 0.48 0.8 0.288 0.416 0.512 0.8 0.736 1.152l8.384 8.384 207.776-207.84-8.576-8.608zM614.944 745.312c-26.88 26.88-70.4 26.88-97.216 0l-375.264-375.584c0 0-34.208-34.432-111.392-283.52-0.544-1.728-1.056-3.488-1.632-5.248-1.376-4.48-2.784-8.96-4.16-13.568-1.248-4.064-2.496-8.224-3.776-12.384-1.056-3.52-2.112-7.008-3.168-10.592-2.464-8.16-4.96-16.448-7.488-25.024-5.536-18.816-19.072-61.248-3.776-76.608 14.72-14.784 57.664-1.792 76.416 3.776 8.512 2.528 16.736 4.992 24.864 7.424 3.744 1.152 7.392 2.24 11.008 3.36 3.936 1.184 7.872 2.4 11.68 3.552 4.864 1.504 9.6 2.976 14.336 4.384 1.408 0.448 2.752 0.864 4.16 1.312 237.152 73.792 279.744 108.448 283.264 111.616l0.064 0.064c0.16 0.128 0.224 0.192 0.224 0.192l10.976 11.008 0.736-0.736 364.608 364.736c26.848 26.88 26.848 70.432 0 97.28l-194.464 194.496z" />
<glyph unicode="&#xe916;" glyph-name="edit-2" d="M912 480c-26.528 0-48-21.504-48-48v-400h-768v768h400c26.528 0 48 21.504 48 48s-21.472 48-48 48h-432c-35.328 0-64-28.672-64-64v-832c0-35.328 28.672-64 64-64h832c35.328 0 64 28.672 64 64v432c0 26.496-21.472 48-48 48zM448 320h-64v64l464 464 64-64-464-464zM1012.832 811.168l-137.664 137.664c-7.52 7.52-17.344 11.168-27.168 11.168-9.856 0-19.648-3.648-27.168-11.168l-532.832-532.832v-192h192l532.832 532.832c7.52 7.52 11.168 17.344 11.168 27.168s-3.648 19.648-11.168 27.168z" />
<glyph unicode="&#xe917;" glyph-name="edit-3" d="M74.144 10.24l50.784 166.816c0.032 0.064 0.096 0.096 0.16 0.032l116.032-116.032c0.064-0.064 0.032-0.128-0.032-0.16l-166.816-50.784c-0.064-0.032-0.128 0.032-0.128 0.128zM334.24 37.696c0 0 1.664 1.664 3.712 3.712l392.992 392.992c2.048 2.048 3.872 3.872 4.064 4.064s2.048 2.048 4.064 4.064l208.224 208.224c0.032 0.032 0.032 0.096 0 0.128l-232.416 232.416c-0.032 0.032-0.096 0.032-0.128 0l-613.024-613.024c0 0-0.032-0.032-0.032-0.032l-101.664-334.080c-0.032-0.064 0.064-0.128 0.128-0.128l329.088 100.16c2.752 0.832 5.024 1.536 5.024 1.536zM1003.104 744c26.272 26.528 26.272 69.92 0 96.448l-98.080 99.008c-26.272 26.528-69.28 26.528-95.552 0l-48.96-49.44c-0.032-0.032-0.032-0.096 0-0.128l193.472-195.328c0.032-0.032 0.096-0.032 0.128 0l48.96 49.44z" />
<glyph unicode="&#xe918;" glyph-name="facebook" d="M269.888 414.624h112.256v-462.112c0-9.12 7.392-16.512 16.512-16.512h190.304c9.12 0 16.512 7.392 16.512 16.512v459.936h129.024c8.384 0 15.456 6.304 16.416 14.624l19.584 170.112c0.544 4.672-0.96 9.376-4.064 12.864s-7.616 5.536-12.32 5.536h-148.64v106.656c0 32.16 17.312 48.448 51.456 48.448 4.864 0 97.184 0 97.184 0 9.12 0 16.512 7.392 16.512 16.512v156.16c0 9.12-7.392 16.512-16.512 16.512h-133.92c-0.96 0.032-3.040 0.128-6.144 0.128-23.232 0-104-4.576-167.808-63.264-70.688-65.056-60.864-142.944-58.528-156.448v-124.704h-117.824c-9.12 0-16.512-7.392-16.512-16.512v-167.936c0-9.12 7.392-16.512 16.512-16.512z" />
<glyph unicode="&#xe919;" glyph-name="flickr" d="M461.28 448c0-127.392-103.264-230.624-230.624-230.624s-230.624 103.264-230.624 230.624c0 127.392 103.264 230.624 230.624 230.624s230.624-103.264 230.624-230.624zM1024 448c0-127.392-103.264-230.624-230.624-230.624s-230.624 103.264-230.624 230.624c0 127.392 103.264 230.624 230.624 230.624s230.624-103.264 230.624-230.624z" />
<glyph unicode="&#xe91a;" glyph-name="google" d="M847.648 960h-277.12c-72.608 0-164.064-10.72-240.736-73.856-57.92-49.76-86.080-118.24-86.080-180.096 0-104.8 80.704-211.008 223.296-211.008 13.44 0 28.192 1.376 43.104 2.688-6.72-16.064-13.536-29.504-13.536-52.384 0-41.664 21.536-67.168 40.352-91.36-60.448-4-173.504-10.72-256.96-61.76-79.36-47.136-103.616-115.584-103.616-164 0-99.456 94.176-192.224 289.248-192.224 231.392 0 353.824 127.648 353.824 254.080 0 92.64-53.792 138.4-112.992 188.128l-48.448 37.6c-14.72 12.128-34.912 28.192-34.912 57.792 0 29.536 20.16 48.416 37.632 65.856 56.48 44.32 113.024 91.36 113.024 190.816 0 102.176-64.64 155.936-95.52 181.44h83.456l85.984 48.288zM729.344 137.632c0-83.296-68.64-145.088-197.792-145.088-143.904 0-236.768 68.544-236.768 163.904 0 95.488 86.112 127.648 115.68 138.4 56.544 18.848 129.152 21.504 141.248 21.504 13.472 0 20.192 0 31.008-1.312 102.272-72.544 146.656-108.896 146.656-177.408zM621.696 570.336c-21.536-21.472-57.888-37.6-91.52-37.6-115.648 0-168.064 149.184-168.064 239.2 0 34.944 6.72 71.2 29.568 99.456 21.536 26.88 59.168 44.352 94.176 44.352 111.648 0 169.504-150.528 169.504-247.232 0-24.224-2.752-67.2-33.632-98.144z" />
<glyph unicode="&#xe91b;" glyph-name="google-plus" d="M662.208 960h-244.224c-108.832 0-184.16-23.872-251.936-79.872-53.312-46.016-85.152-112.864-85.152-178.848 0-101.664 77.504-209.728 221.152-209.728 13.824 0 29.088 1.408 42.592 2.688l-1.984-4.832c-5.76-13.824-11.232-26.88-11.232-47.264 0-39.648 19.136-64.128 37.632-87.744l2.336-3.008-4.128-0.288c-59.328-4.064-169.728-11.648-250.368-61.216-95.264-56.64-102.656-139.008-102.656-162.912 0-95.040 88.576-191.008 286.496-191.008 230.112 0 350.528 126.976 350.528 252.352 0.032 92.768-54.368 138.56-112.096 187.168l-48.704 37.888c-15.040 12.48-33.792 27.968-33.792 56.736 0 28.256 18.752 46.912 35.296 63.36l1.728 1.76c52.608 41.408 112.192 88.384 112.192 189.984 0 102.144-63.808 154.912-94.528 180.288h81.056c0.992 0 1.984 0.288 2.816 0.8l69.824 43.904c1.984 1.248 2.912 3.68 2.272 5.952s-2.72 3.808-5.056 3.808zM366.048-8.032c-140.288 0-234.528 65.504-234.528 163.040 0 63.68 38.56 109.952 114.464 137.44 60.8 20.448 139.296 21.472 140.064 21.472 13.28 0 19.968 0 30.592-1.344 98.144-69.856 145.344-106.528 145.344-176.384 0-88.992-75.104-144.256-195.936-144.256zM364.736 528.992c-117.728 0-166.592 154.752-166.592 237.6 0 42.144 9.568 74.464 29.28 98.88 21.408 26.752 58.016 44.064 93.344 44.064 108.096 0 167.872-145.28 167.872-245.696 0-15.84 0-64.032-33.28-97.504-22.4-22.336-58.816-37.344-90.624-37.344zM1004.48 481.728h-128.672v128.224c0 2.912-2.368 5.28-5.28 5.28h-55.36c-2.912 0-5.28-2.368-5.28-5.28v-128.224h-128.032c-2.912 0-5.28-2.368-5.28-5.28v-56.096c0-2.912 2.368-5.28 5.28-5.28h128.032v-129.056c0-2.912 2.368-5.28 5.28-5.28h55.36c2.912 0 5.28 2.368 5.28 5.28v129.088h128.672c2.912 0 5.28 2.368 5.28 5.28v56.064c0 2.944-2.368 5.28-5.28 5.28z" />
<glyph unicode="&#xe91c;" glyph-name="google-plus-2" d="M999.616 515.008h-64.352v64.352c0 13.472-10.912 24.384-24.384 24.384h-86.848c-13.472 0-24.384-10.912-24.384-24.384v-64.352h-64.352c-13.472 0-24.384-10.912-24.384-24.384v-86.848c0-13.472 10.912-24.384 24.384-24.384h64.352v-64.352c0-13.472 10.912-24.384 24.384-24.384h86.848c13.472 0 24.384 10.912 24.384 24.384v64.352h64.352c13.472 0 24.384 10.912 24.384 24.384v86.848c0 13.472-10.912 24.384-24.384 24.384zM331.264 621.408c29.536 0 57.952-7.968 82.176-23.040l27.68-18.944c9.632-6.592 22.624-5.44 30.912 2.784l80.704 79.968c5.152 5.12 7.776 12.256 7.136 19.52s-4.512 13.824-10.496 17.92l-46.912 32.16c-0.96 0.64-1.952 1.248-3.008 1.76l-45.44 22.432c-0.608 0.288-1.216 0.576-1.824 0.832-39.136 15.456-80.384 23.296-122.592 23.296-86.976 0-169.024-33.376-231.040-93.984-62.944-61.536-97.984-145.248-98.56-235.68s33.28-174.624 95.424-237.024c61.664-61.92 149.152-97.44 240.032-97.44 89.92 0 174.272 34.912 231.424 95.776 45.28 48.224 73.088 112.608 80.384 186.24 0.064 0.704 0.096 1.408 0.128 2.112l0.832 66.144c0.032 1.376-0.064 2.72-0.288 4.096l-3.552 22.592c-1.856 11.872-12.096 20.608-24.096 20.608h-281.76c-13.472 0-24.384-10.912-24.384-24.384v-97.472c0-13.472 10.912-24.384 24.384-24.384h143.648c-6.592-14.432-16.96-29.632-30.080-43.84-28.608-30.944-71.264-48.672-117.056-48.672-46.752 0-91.52 18.336-122.848 50.272-65.184 66.464-64.448 182.304 1.6 247.872 31.072 30.848 73.888 48.544 117.472 48.544z" />
<glyph unicode="&#xe91d;" glyph-name="heart" d="M282.735 832.498c-61.412 0-117.843-24.106-158.858-67.888-41.652-44.447-64.595-105.859-64.595-172.973 0-70.794 26.762-134.116 86.763-205.326 57.981-68.802 144.218-141.091 244.099-224.81l0.194-0.138c34.899-29.253 74.475-62.436 115.684-97.861 41.43 35.48 81.062 68.719 116.044 98.027 99.854 83.691 186.091 155.98 244.072 224.782 59.973 71.182 86.736 134.504 86.736 205.326 0 67.114-22.943 128.526-64.595 172.973-41.043 43.783-97.446 67.888-158.858 67.888-44.973 0-86.293-14.059-122.769-41.79-32.491-24.714-55.13-55.988-68.414-77.852-6.836-11.236-18.847-17.962-32.159-17.962s-25.323 6.725-32.159 17.962c-13.257 21.864-35.895 53.137-68.414 77.852-36.477 27.731-77.769 41.79-122.769 41.79zM506.077 5.189c-14.419 0-28.312 5.12-39.133 14.447-40.877 35.176-80.315 68.221-115.103 97.363l-0.166 0.138c-101.957 85.462-190.021 159.274-251.295 231.978-68.497 81.283-100.38 158.333-100.38 242.522 0 81.782 28.506 157.253 80.287 212.494 52.39 55.877 124.291 86.68 202.448 86.68 58.423 0 111.92-18.155 159.024-53.995 23.773-18.072 45.305-40.213 64.291-66.034 18.986 25.821 40.517 47.934 64.291 66.034 47.104 35.812 100.601 53.995 159.024 53.995 78.156 0 150.058-30.775 202.448-86.68 51.781-55.241 80.287-130.685 80.287-212.494 0-84.189-31.882-161.238-100.38-242.522-61.274-72.704-149.31-146.515-251.267-231.95-34.844-29.198-74.337-62.298-115.297-97.529-10.821-9.299-24.714-14.447-39.106-14.447z" />
<glyph unicode="&#xe91e;" glyph-name="home" d="M1024 369.568l-512 397.44-512-397.44v162.048l512 397.44 512-397.44zM896 384v-384h-256v256h-256v-256h-256v384l384 288z" />
<glyph unicode="&#xe91f;" glyph-name="home2" d="M512 928l-512-512 96-96 96 96v-416h256v192h128v-192h256v416l96-96 96 96-512 512zM512 512c-35.36 0-64 28.64-64 64s28.64 64 64 64c35.36 0 64-28.64 64-64s-28.64-64-64-64z" />
<glyph unicode="&#xe920;" glyph-name="home3" d="M1024 352l-192 192v288h-128v-160l-192 192-512-512v-32h128v-320h320v192h128v-192h320v320h128z" />
<glyph unicode="&#xe921;" glyph-name="image" d="M748 744h-438.208l300.192 173.408c9.6 5.6 21.792 2.208 27.392-7.392l67.808-117.408c5.6-9.6 17.792-12.8 27.392-7.392 9.6 5.6 12.8 17.792 7.392 27.392l-68 117.408c-16.608 28.608-53.408 38.4-82.016 22.016l-359.808-207.808c-0.192 0-0.192-0.192-0.416-0.192h-169.792c-32.992 0-60-27.008-60-60v-688c0-32.992 27.008-60 60-60h688c32.992 0 60 27.008 60 60v688c0 33.184-27.008 60-60 60zM768-4c0-11.008-8.992-20-20-20h-688c-11.008 0-20 8.992-20 20v688c0 11.008 8.992 20 20 20h688c11.008 0 20-8.992 20-20v-688zM894.592 543.008c-3.808 3.808-8.8 5.792-14.208 5.792-5.216 0-10.4-2.208-14.208-5.792-3.808-3.808-5.792-8.8-5.792-14.208s2.208-10.4 5.792-14.208c3.808-3.808 8.8-5.792 14.208-5.792 5.216 0 10.4 2.208 14.208 5.792 3.808 3.808 5.792 8.8 5.792 14.208s-2.016 10.4-5.792 14.208zM1016 334.208l-82.784 143.392c-5.6 9.6-17.792 12.8-27.392 7.392-9.6-5.6-12.8-17.792-7.392-27.392l82.784-143.392c5.6-9.6 2.208-21.792-7.392-27.392l-128.608-74.208c-9.6-5.6-12.8-17.792-7.392-27.392 3.808-6.4 10.4-10.016 17.408-10.016 3.392 0 6.784 0.8 10.016 2.592l128.608 74.208c28.8 16.8 38.816 53.6 22.208 82.208zM526.208 642.208c-3.808 3.808-8.8 5.792-14.208 5.792-5.184 0-10.4-2.208-14.208-5.792-3.808-3.808-5.792-8.8-5.792-14.208s2.208-10.4 5.792-14.208c3.808-3.808 8.8-5.792 14.208-5.792 5.216 0 10.4 2.208 14.208 5.792 3.808 3.808 5.792 8.8 5.792 14.208s-2.208 10.4-5.792 14.208zM692 648h-78.016c-11.008 0-20-8.992-20-20s8.992-20 20-20h58.016v-285.216l-158.784 158.816c-3.808 3.808-8.8 5.792-14.208 5.792s-10.4-2.208-14.208-5.792l-106.016-106.016c-7.808-7.808-7.808-20.384 0-28.192s20.384-7.808 28.192 0l91.808 91.808 172.8-172.8c0 0 0 0 0.192-0.192v-98.208h-507.616l145.184 145.216 107.808-107.808c7.808-7.808 20.384-7.808 28.192 0s7.808 20.384 0 28.192l-122.016 122.016c-3.808 3.808-8.8 5.792-14.208 5.792s-10.4-2.208-14.208-5.792l-159.008-159.392v411.808h268c11.008 0 20 8.992 20 20s-8.992 20-20 20h-288c-11.008 0-20-8.992-20-20v-480c0-11.008 8.992-20 20-20h576c11.008 0 20 8.992 20 20v480c0 11.008-8.992 20-20 20zM291.392 561.984c-35.2 0-64-28.8-64-64s28.8-64 64-64c35.2 0 64 28.8 64 64 0 35.392-28.8 64-64 64zM291.392 473.984c-13.184 0-24 10.816-24 24s10.816 24 24 24c13.184 0 24-10.816 24-24s-10.816-24-24-24z" />
<glyph unicode="&#xe922;" glyph-name="instagram" d="M131.488 959.968h761.088c72.32 0 131.424-59.136 131.424-131.456v-761.088c0-72.288-59.104-131.392-131.424-131.392h-761.088c-72.32 0-131.488 59.104-131.488 131.392v761.088c0 72.32 59.168 131.456 131.488 131.456zM745.984 846.24c-25.376 0-46.112-20.8-46.112-46.176v-110.304c0-25.376 20.704-46.112 46.112-46.112h115.712c25.344 0 46.112 20.736 46.112 46.112v110.304c0 25.376-20.768 46.176-46.112 46.176h-115.712zM908.224 526.944h-90.112c8.544-27.904 13.184-57.344 13.184-87.936 0-170.272-142.56-308.352-318.336-308.352-175.744 0-318.304 138.112-318.304 308.352 0 30.592 4.672 60.032 13.184 87.936h-94.016v-432.576c0-22.4 18.304-40.64 40.672-40.64h713.056c22.4 0 40.64 18.24 40.64 40.64v432.576zM512.96 649.472c-113.536 0-205.632-89.184-205.632-199.296 0-110.016 92.096-199.264 205.632-199.264 113.6 0 205.696 89.248 205.696 199.264 0 110.112-92.096 199.296-205.696 199.296z" />
<glyph unicode="&#xe923;" glyph-name="language" d="M886.688 218.752c-30.016 11.296-60.32 21.152-90.816 29.664 12.576 49.696 20.32 102.88 22.944 157.76h130.56c-6.496-68.192-28.576-131.872-62.688-187.424zM710.176 55.936c9.152 12.704 17.92 26.336 26.24 40.96 12.736 22.336 24.064 46.368 34.016 71.744 21.184-5.824 42.24-12.352 63.168-19.648-35.2-37.856-76.928-69.472-123.424-93.088zM553.824 30.336v172.48c44.832-1.952 89.6-7.008 134.048-15.232-33.056-79.552-80.48-137.184-134.048-157.248zM553.824 406.176h181.28c-2.656-48.8-9.856-95.488-20.8-138.432-53.184 10.432-106.784 16.736-160.48 18.88v119.52zM553.824 609.376c53.696 2.144 107.296 8.448 160.48 18.848 10.944-42.944 18.144-89.632 20.8-138.432h-181.28v119.552zM553.824 865.664c53.568-20.064 100.992-77.696 134.048-157.248-44.448-8.224-89.216-13.28-134.048-15.232v172.48zM833.632 746.976c-20.928-7.264-41.984-13.792-63.168-19.648-9.952 25.408-21.28 49.44-34.016 71.744-8.32 14.656-17.088 28.288-26.24 40.96 46.528-23.584 88.256-55.232 123.424-93.088zM886.688 677.248c34.112-55.552 56.224-119.232 62.688-187.424h-130.528c-2.624 54.912-10.4 108.064-22.944 157.76 30.496 8.512 60.8 18.368 90.816 29.664zM470.176 693.184c-44.832 1.92-89.6 7.008-134.048 15.2 33.056 79.552 80.48 137.184 134.048 157.248v-172.448zM470.176 489.824h-181.248c2.656 48.832 9.888 95.488 20.8 138.432 53.152-10.432 106.752-16.736 160.448-18.848v-119.552zM470.176 286.656c-53.696-2.144-107.296-8.448-160.448-18.88-10.912 42.944-18.144 89.632-20.8 138.432h181.248v-119.52zM470.176 30.336c-53.568 20.064-100.992 77.696-134.048 157.248 44.448 8.224 89.216 13.28 134.048 15.232v-172.48zM190.368 148.992c20.96 7.296 42.048 13.824 63.2 19.648 9.92-25.376 21.248-49.44 33.984-71.744 8.32-14.624 17.088-28.288 26.272-40.96-46.496 23.616-88.256 55.232-123.456 93.056zM137.312 218.752c-34.112 55.552-56.224 119.232-62.688 187.424h130.528c2.656-54.88 10.4-108.064 22.976-157.76-30.528-8.512-60.8-18.368-90.848-29.664zM137.312 677.248c30.048-11.264 60.32-21.152 90.848-29.664-12.576-49.728-20.352-102.88-22.976-157.76h-130.528c6.464 68.192 28.576 131.872 62.688 187.424zM313.824 840.064c-9.184-12.704-17.952-26.336-26.272-40.96-12.704-22.304-24.064-46.336-33.984-71.744-21.184 5.824-42.272 12.384-63.2 19.648 35.2 37.824 76.96 69.472 123.456 93.056zM512 960c-282.752 0-512-229.248-512-512s229.248-512 512-512c282.752 0 512 229.248 512 512s-229.248 512-512 512z" />
<glyph unicode="&#xe924;" glyph-name="linkedin" d="M238.368 630.56h-205.568c-9.12 0-16.512-7.392-16.512-16.512v-660.416c0-9.12 7.392-16.512 16.512-16.512h205.568c9.12 0 16.512 7.392 16.512 16.512v660.416c0 9.12-7.392 16.512-16.512 16.512zM135.648 958.88c-74.784 0-135.648-60.8-135.648-135.488 0-74.752 60.864-135.552 135.648-135.552 74.752 0 135.552 60.8 135.552 135.552s-60.8 135.488-135.552 135.488zM761.248 646.976c-82.56 0-143.584-35.488-180.608-75.808v42.88c0 9.12-7.392 16.512-16.512 16.512h-196.864c-9.12 0-16.512-7.392-16.512-16.512v-660.416c0-9.12 7.392-16.512 16.512-16.512h205.12c9.12 0 16.512 7.392 16.512 16.512v326.752c0 110.112 29.92 152.992 106.656 152.992 83.584 0 90.24-68.768 90.24-158.656v-321.088c0-9.12 7.392-16.512 16.512-16.512h205.184c9.12 0 16.512 7.392 16.512 16.512v362.24c0 163.712-31.232 331.104-262.752 331.104z" />
<glyph unicode="&#xe925;" glyph-name="lock" d="M874.592 576h-64v85.408c0 164.608-134.016 298.592-298.592 298.592s-298.592-134.016-298.592-298.592v-85.408h-64c-11.808 0-21.408-9.6-21.408-21.408v-533.408c0-47.008 38.208-85.216 85.408-85.216h597.408c47.008 0 85.408 38.208 85.408 85.408v533.216c-0.192 11.808-9.792 21.408-21.6 21.408zM575.808 130.4c0.608-6.016-1.184-12-5.408-16.608-4-4.608-9.792-7.2-15.808-7.2h-85.408c-6.016 0-11.808 2.592-15.808 7.2s-6.016 10.592-5.408 16.608l13.408 120.992c-21.792 15.808-35.008 40.992-35.008 68.608 0 47.008 38.208 85.408 85.408 85.408s85.408-38.208 85.408-85.408c0-27.616-12.992-52.8-35.008-68.608l13.6-120.992zM682.592 576h-341.184v85.408c0 94.208 76.608 170.592 170.592 170.592s170.592-76.608 170.592-170.592v-85.408z" />
<glyph unicode="&#xe926;" glyph-name="mail-1" d="M663.771 471.893l349.33-314.392v628.834zM506.539 330.411l-99.718 89.771-349.306-314.417h898.072l-349.306 314.417zM57.49 838.095l449.048-404.187 449.073 404.187zM0 157.501l349.306 314.392-349.306 314.441z" />
<glyph unicode="&#xe927;" glyph-name="mail-2" d="M936.351 768.595l-419.757-352.201-419.757 352.201v25.351h839.486v-25.351zM936.351 148.189h-839.486v493.983l378.216-317.357c12.039-10.102 26.762-15.166 41.514-15.166s29.475 5.065 41.514 15.166l378.216 317.357v-493.983zM968.649 890.811h-904.081c-35.646 0-64.567-28.893-64.567-64.567v-710.352c0-35.646 28.921-64.567 64.567-64.567h904.081c35.646 0 64.567 28.921 64.567 64.567v710.352c0 35.674-28.921 64.567-64.567 64.567z" />
<glyph unicode="&#xe928;" glyph-name="mail-3" d="M93.089 594.146c12.264-8.668 49.247-34.364 110.949-77.133s108.973-75.681 141.788-98.756c3.596-2.524 11.264-8.025 23.004-16.503s21.48-15.336 29.22-20.575c7.763-5.239 17.146-11.097 28.148-17.575s21.385-11.359 31.125-14.598c9.74-3.263 18.765-4.858 27.053-4.858h1.095c8.287 0 17.313 1.619 27.053 4.858s20.123 8.121 31.125 14.598 20.385 12.359 28.148 17.575c7.763 5.239 17.503 12.097 29.22 20.575s19.385 13.979 23.004 16.503c33.197 23.076 117.617 81.729 253.285 175.89 26.338 18.384 48.342 40.579 66.012 66.56s26.529 53.2 26.529 81.706c0 23.814-8.573 44.199-25.719 61.154s-37.436 25.433-60.892 25.433h-796.672c-27.791 0-49.152-9.383-64.131-28.148s-22.457-42.222-22.457-70.346c0-22.742 9.93-47.366 29.767-73.871s40.96-47.366 63.321-62.512zM915.718 536.231c-118.332-80.086-208.182-142.336-269.526-186.725-20.575-15.146-37.245-26.981-50.057-35.435s-29.863-17.146-51.152-25.981c-21.29-8.859-41.127-13.264-59.535-13.264h-1.095c-18.408 0-38.245 4.406-59.535 13.264s-38.34 17.503-51.152 25.981c-12.812 8.478-29.505 20.289-50.057 35.435-48.723 35.721-138.383 97.971-268.979 186.725-20.575 13.693-38.793 29.41-54.677 47.080v-429.723c0-23.838 8.478-44.199 25.433-61.154s37.34-25.433 61.154-25.433h796.672c23.814 0 44.199 8.478 61.154 25.433s25.433 37.34 25.433 61.154v429.723c-15.527-17.313-33.554-33.006-54.129-47.080z" />
<glyph unicode="&#xe929;" glyph-name="map" d="M504.352 475.936c-71.84 0-130.336 58.496-130.336 130.336s58.496 130.336 130.336 130.336c71.84 0 130.336-58.496 130.336-130.336s-58.496-130.336-130.336-130.336zM753.504 855.424c-67.424 67.424-157.088 104.576-252.448 104.576s-185.024-37.152-252.448-104.576c-124.8-124.768-140.32-359.552-33.6-501.792l286.048-413.088 285.632 412.512c107.136 142.816 91.648 377.6-33.152 502.368z" />
<glyph unicode="&#xe92a;" glyph-name="maps" d="M241.001 731.467l-163.78-85.173v-101.768l163.78 85.173zM662.167-31.774v796.702l-308.856 161.912v-794.142l308.856-164.503zM617.713 168.99c0.241-5.602-2.801-10.993-7.499-14.035-2.349-1.626-5.15-2.349-8.192-2.349-2.56 0-5.15 0.693-7.499 1.867l-183.688 96.858c-5.391 2.801-8.644 8.433-8.433 14.517v161.672c-0.241 5.602 2.801 10.993 7.499 14.035s10.752 3.042 15.691 0.482l183.688-96.648c5.391-2.801 8.644-8.433 8.433-14.517v-161.912zM616.538 484.864c-4.216-7.951-14.035-10.993-22.227-6.776l-183.898 96.648c-7.951 4.216-10.993 14.035-6.776 21.986s14.035 10.993 21.986 7.017l183.898-96.648c8.192-4.457 11.234-14.276 7.017-22.227zM403.607 735.202c4.216 7.951 14.035 10.993 22.227 6.776l183.898-96.648c7.951-4.216 10.993-14.035 6.776-22.227-2.108-3.735-5.391-6.776-9.608-7.951s-8.644-0.934-12.408 1.175l-183.898 96.648c-8.192 4.457-11.234 14.276-7.017 22.227zM435.2 275.667l149.745-79.541v124.717l-149.745 79.541zM0-32.949l320.542 165.647v794.353l-320.542-163.087v-796.943zM265.788 304.911l-198.656-102.008c-5.15-2.801-11.475-2.349-16.384 0.693-4.909 3.283-7.71 8.644-7.499 14.517s3.735 11.234 8.885 13.794l198.656 102.008c5.15 2.801 11.475 2.349 16.384-0.693 4.909-3.283 7.71-8.644 7.499-14.517s-3.524-11.234-8.885-13.794zM44.454 656.354c-0.241 6.084 2.801 11.686 8.192 14.517l197.933 102.008c4.909 2.56 10.993 2.349 15.691-0.693s7.499-8.433 7.258-14.035v-138.511c0.241-6.084-3.042-11.686-8.192-14.517l-198.174-102.008c-2.349-1.175-4.668-1.867-7.258-1.867-2.801 0-5.843 0.934-8.192 2.349-4.668 3.042-7.499 8.433-7.258 14.035v138.752zM52.164 347.497l198.656 102.008c5.15 2.801 11.475 2.349 16.384-0.693 4.909-3.283 7.71-8.644 7.499-14.517s-3.735-11.234-8.885-13.794l-198.656-102.008c-5.15-2.801-11.475-2.349-16.384 0.693-4.909 3.283-7.71 8.644-7.499 14.517s3.735 11.234 8.885 13.794zM694.935-33.882v0l325.24 166.581v797.184l-325.24-166.581v-797.184zM752.941 626.869l198.656 102.008c5.15 2.801 11.475 2.56 16.384-0.693s7.71-8.885 7.499-14.728c-0.241-5.843-3.735-11.234-9.126-13.794l-198.656-102.008c-5.15-2.801-11.475-2.349-16.384 0.693-4.909 3.283-7.71 8.644-7.499 14.517 0.482 6.325 3.735 11.475 9.126 14.035zM752.941 511.518l198.656 102.008c5.15 2.801 11.475 2.56 16.384-0.693s7.71-8.885 7.499-14.728c-0.241-5.843-3.735-11.234-9.126-13.794l-198.656-102.008c-5.15-2.801-11.475-2.349-16.384 0.693-4.909 3.283-7.71 8.644-7.499 14.517 0.482 6.084 3.735 11.475 9.126 14.035zM752.941 395.927l198.656 102.008c5.15 2.801 11.475 2.349 16.384-0.693 4.909-3.283 7.71-8.885 7.499-14.728s-3.735-11.234-9.126-13.794l-198.656-102.008c-5.15-2.801-11.475-2.349-16.384 0.693-4.909 3.283-7.71 8.644-7.499 14.517 0.482 6.325 3.735 11.475 9.126 14.035z" />
<glyph unicode="&#xe92b;" glyph-name="menu" d="M0 916.114h1014.257v-156.028h-1014.257v156.028zM0 526.029h1014.257v-156.028h-1014.257v156.028zM0 135.914h1014.257v-156.028h-1014.257v156.028z" />
<glyph unicode="&#xe92c;" glyph-name="minus" d="M914.286 539.429v-109.714c0-30.281-24.576-54.857-54.857-54.857h-694.857c-30.281 0-54.857 24.576-54.857 54.857v109.714c0 30.281 24.576 54.857 54.857 54.857h694.857c30.281 0 54.857-24.576 54.857-54.857z" />
<glyph unicode="&#xe92d;" glyph-name="minus-2" d="M510.368-64c-279.872 0-510.368 230.496-510.368 513.632s230.496 510.368 510.368 510.368 510.368-230.496 510.368-510.368c3.296-283.168-227.2-513.632-510.368-513.632zM510.368 900.736c-250.24 0-451.072-200.864-451.072-451.072s204.128-454.368 454.368-454.368c250.24 0 454.368 204.128 454.368 454.368s-207.424 451.072-457.664 451.072zM714.496 420h-404.992c-16.448 0-29.632 13.184-29.632 29.632s13.184 29.632 29.632 29.632h401.696c16.448 0 29.632-13.184 29.632-29.632s-13.184-29.632-26.336-29.632z" />
<glyph unicode="&#xe92e;" glyph-name="mobile" d="M728.512 960h-429.792c-41.12 0-74.752-33.632-74.752-74.752v-874.496c0-41.12 33.632-74.752 74.752-74.752h429.792c41.12 0 74.752 33.632 74.752 74.752v874.496c0 41.12-33.632 74.752-74.752 74.752zM407.136 915.168h213.024c3.744 0 11.2-7.488 11.2-18.688s-3.744-18.688-11.2-18.688h-213.024c-3.744 0-7.488 7.488-7.488 18.688s3.744 18.688 7.488 18.688zM515.52 7.008c-26.176 0-48.576 22.432-48.576 48.576s22.432 48.576 48.576 48.576c26.176 0 48.576-22.432 48.576-48.576-3.744-26.176-22.432-48.576-48.576-48.576zM747.2 171.456h-467.168v661.504h467.168v-661.504z" />
<glyph unicode="&#xe92f;" glyph-name="money" d="M574.4 279.808c-3.84 4.096-8.672 7.232-13.728 9.888-10.848 5.792-22.88 9.152-34.688 12.288v-91.552c19.264 2.176 41.216 9.152 51.328 26.976 0 0 0 0 0 0s0 0 0 0 0 0 0 0c4.832 8.672 5.792 19.040 3.84 28.672-1.216 5.056-3.36 9.888-6.752 13.728zM436.096 426.304c-3.36-4.832-5.312-10.368-6.016-16.128-0.48-5.792-0.256-12.288 1.92-17.824 2.176-5.312 6.496-9.152 11.072-12.288 5.056-3.36 10.848-6.272 16.384-8.448 4.832-1.92 10.112-3.84 16.128-5.536v82.88c-14.688-3.136-30.848-9.888-39.52-22.656zM558.272 737.12c77.824 65.536 129.856 212.736 97.824 219.264-42.656 8.672-134.912-28.928-179.744-35.648-63.36-7.712-132.288 68.672-171.072 26.272-31.552-34.688 22.656-160.48 107.232-215.168-252.512-124.096-607.168-746.688 11.808-791.968 856.32-62.656 427.68 676.576 133.952 797.28zM631.744 246.080c-2.656-24.32-15.424-46.272-34.688-61.184-20.224-15.648-45.792-23.136-71.072-25.056v-26.752c0-7.232-3.136-14.208-8.448-18.784-7.456-6.496-18.304-8.192-27.232-4.096s-14.688 13.248-14.688 22.88v29.408c-4.352 0.736-8.672 1.696-13.024 2.88-23.616 6.496-45.536 19.264-61.696 37.824-7.936 9.408-14.464 20-19.040 31.328-1.216 2.88-2.176 6.016-3.136 9.152-0.736 2.88-1.696 5.536-1.92 8.448-0.48 4.832 0.48 9.888 2.656 14.208 4.576 8.928 14.464 14.208 24.576 13.504 9.888-0.96 18.56-7.712 21.696-17.12 0.96-2.88 1.696-5.792 2.656-8.672s2.4-5.536 3.84-8.192 6.752-9.888 11.072-14.208c8.928-8.672 20.224-14.208 32.032-17.344v99.744c-23.136 6.016-46.976 13.728-66.016 28.416-9.152 7.232-17.12 16.128-22.4 26.752-5.536 11.072-7.712 23.616-7.712 36.128s2.4 25.056 7.456 36.608c4.832 10.848 12.032 20.48 20.736 28.416 18.56 17.12 43.136 26.496 67.936 30.112v27.232c0 7.232 3.136 14.208 8.448 18.784 7.456 6.496 18.304 8.192 27.232 4.096s14.688-13.248 14.688-22.88v-27.456c3.36-0.48 6.496-0.96 9.888-1.44 24.32-4.352 47.936-14.464 65.792-31.808 8.448-8.192 15.168-18.080 20.224-28.928 1.44-2.88 2.656-6.016 3.616-9.152 0.96-2.88 1.92-6.016 2.4-8.928 0.736-4.832 0-9.888-2.176-14.464-4.352-9.152-13.728-14.944-23.84-14.464-9.888 0.48-18.784 6.976-22.4 16.128-0.96 2.656-1.696 5.792-2.656 8.448-1.216 2.88-2.4 5.536-4.096 7.936-3.136 4.832-7.232 9.152-11.808 12.544-10.112 7.456-22.4 11.328-34.464 13.504v-95.424c14.464-3.36 29.152-7.232 43.136-12.768 20.96-8.192 40.96-20.96 52.512-41.216-1.696 3.136-3.616 6.272 0 0s1.92-3.136 0-0.256c8.928-16.384 12.032-35.648 9.888-53.984z" />
<glyph unicode="&#xe930;" glyph-name="noti" d="M570.766 391.708c0-35.897-29.212-65.081-65.081-65.081s-65.081 29.212-65.081 65.081v298.724c0 17.038 13.796 30.834 30.834 30.834h68.523c17.038 0 30.834-13.796 30.834-30.834v-298.724zM505.685 115.371c-35.641 0-64.654 29.013-64.654 64.654s28.985 64.626 64.654 64.626c35.641 0 64.654-28.985 64.654-64.626s-29.013-64.654-64.654-64.654zM997.888 149.902l-406.215 703.545c-17.948 31.118-50.119 49.664-86.016 49.664s-68.068-18.546-86.016-49.664l-406.187-703.545c-17.948-31.090-17.948-68.21 0-99.328s50.091-49.664 86.016-49.664h812.402c35.897 0 68.068 18.574 86.016 49.664s17.948 68.238 0 99.328z" />
<glyph unicode="&#xe931;" glyph-name="paypal" d="M948.704 781.408c41.6-76.288 27.872-166.208 11.488-219.392-88.64-289.536-488.608-273.792-546.464-273.792-57.792 0-71.264-53.888-71.264-53.888l-43.2-188.512c-11.776-66.176-71.808-62.88-71.808-62.88s-78.016 0-130.176 0c-3.264 0-6.336 0.224-9.12 0.64-0.64-12.128 1.088-47.552 44.416-47.552 52.128 0 130.144 0 130.144 0s60-3.36 71.84 62.816l43.168 188.512c0 0 13.504 53.888 71.296 53.888s457.824-15.744 546.528 273.792c19.776 64.704 35.872 183.648-46.784 266.336zM259.040 86.912l43.2 188.544c0 0 13.408 53.792 71.296 53.792 57.76 0 457.792-15.648 546.432 273.824 32.448 105.824 54.944 356.928-348.96 356.928h-291.744c0 0-60.64 2.816-75.616-61.664l-190.624-822.72c0 0-8.192-51.552 43.968-51.552 52.192 0 130.24 0 130.24 0s60-3.392 71.808 62.848zM368.992 565.472l38.752 167.168c0 0 12.352 45.472 52.192 52.192 39.84 6.752 107.68-1.216 125.12-4.48 113.312-21.28 89.216-128.48 89.216-128.48-22.432-165.472-280-142.528-280-142.528-40.384 14.592-25.248 56.128-25.248 56.128z" />
<glyph unicode="&#xe932;" glyph-name="phone-1" d="M785.12 11.744c-3.328-0.32-6.848-0.448-10.464-0.448-100.32 0-281.92 111.552-441.6 271.232-84.704 84.704-155.616 174.112-205.024 258.592-46.56 79.552-69.92 148.288-65.76 193.536 4.096 44.384 52.224 103.904 85.472 138.976l184.416-184.416-90.944-90.944 407.552-407.552 90.944 90.944 184.384-184.384c-34.752-32.768-94.944-81.44-138.944-85.504zM739.68 368.992l-90.944-90.944-320.192 320.192 90.944 90.944-270.816 270.784-21.792-20.064c-12.064-11.072-117.952-110.848-126.144-199.648-6.848-74.336 36.448-166.336 73.952-230.432 52.064-88.928 126.304-182.656 214.656-271.040 175.776-175.744 366.24-289.312 485.28-289.344 5.536 0 10.944 0.224 16.16 0.736 88.8 8.192 188.544 114.080 199.648 126.144l20.064 21.792-270.816 270.816zM551.552 830.496v61.76c215.712 0 391.2-175.488 391.2-391.2h-61.76c0 181.632-147.776 329.408-329.44 329.408zM551.552 686.368v61.76c136.224 0 247.072-110.816 247.072-247.072h-61.76c0 102.176-83.136 185.312-185.312 185.312z" />
<glyph unicode="&#xe933;" glyph-name="phone-2" d="M909.44 131.68l-57.728-58.4c-37.056-37.536-95.744-51.072-145.632-33.376-284.736 100.672-510.272 332.16-603.328 619.136-18.144 56.064 1.088 117.76 47.968 153.504l50.464 38.464c11.168 8.544 24.544 13.056 38.72 13.056 24.032 0 45.888-13.344 56.928-34.88l85.28-165.76c1.184-2.24 1.76-4.672 1.76-7.2 0-5.12-2.304-8.704-4.224-10.784l-17.728-19.328c-44.768-48.608-54.464-120.8-24.128-179.552 38.272-74.304 97.888-133.856 172.32-172.16 57.728-29.792 131.936-19.744 179.712 24.096l19.36 17.792c3.136 2.848 11.296 5.888 17.984 2.464l165.856-85.216c21.568-11.072 34.944-32.896 34.944-56.96 0-16.864-6.592-32.8-18.528-44.896zM936.896 318.848l-165.856 85.216c-40.64 20.928-93.12 13.792-126.784-17.152l-19.392-17.728c-18.752-17.28-48.064-21.28-70.784-9.504-56.576 29.088-101.824 74.336-130.976 130.816-11.936 23.168-8.128 51.552 9.568 70.752l17.728 19.328c19.040 20.736 29.504 47.584 29.504 75.648 0 17.664-4.288 35.328-12.384 51.072l-85.312 165.76c-27.584 53.632-82.144 86.944-142.304 86.944-35.424 0-68.96-11.328-96.992-32.736l-50.432-38.464c-79.2-60.384-111.744-164.544-81.056-259.296 102.208-315.232 349.888-569.44 662.624-680.032 25.248-8.96 51.648-13.472 78.432-13.472 62.624 0 123.68 25.44 167.552 69.856l57.76 58.432c29.792 30.144 46.208 70.016 46.208 112.288 0 60.16-33.376 114.688-87.104 142.272z" />
<glyph unicode="&#xe934;" glyph-name="phone-3" d="M765.12 294.272c-32.864 32.448-73.92 32.448-106.592 0-24.928-24.704-49.856-49.408-74.368-74.56-6.688-6.912-12.352-8.384-20.512-3.744-16.128 8.768-33.312 15.904-48.768 25.536-72.256 45.44-132.768 103.872-186.4 169.6-26.592 32.672-50.272 67.68-66.816 107.040-3.328 7.936-2.72 13.184 3.776 19.68 24.896 24.096 49.184 48.768 73.696 73.504 34.112 34.336 34.112 74.56-0.224 109.12-19.488 19.68-38.944 38.944-58.4 58.624-20.128 20.096-40 40.416-60.32 60.32-32.896 32.064-73.92 32.064-106.624-0.224-25.12-24.704-49.184-50.048-74.752-74.336-23.648-22.4-35.584-49.856-38.112-81.888-4-52.128 8.8-101.376 26.816-149.312 36.864-99.264 92.992-187.456 161.056-268.256 91.936-109.312 201.632-195.84 330.048-258.24 57.792-28.064 117.696-49.632 182.816-53.184 44.8-2.496 83.776 8.8 114.976 43.776 21.376 23.872 45.44 45.632 68.064 68.48 33.504 33.92 33.728 74.944 0.416 108.48-39.808 40-79.808 79.776-119.808 119.584zM725.152 461.152l77.248 13.216c-12.128 70.976-45.632 135.264-96.512 186.368-53.824 53.824-121.888 87.744-196.864 98.208l-10.88-77.696c57.984-8.16 110.784-34.336 152.448-76.032 39.36-39.36 65.12-89.216 74.56-144.064zM845.952 797.088c-89.184 89.184-202.080 145.536-326.688 162.912l-10.88-77.696c107.616-15.072 205.216-63.872 282.304-140.704 73.088-73.088 121.024-165.44 138.432-267.008l77.28 13.184c-20.32 117.728-75.808 224.512-160.416 309.344z" />
<glyph unicode="&#xe935;" glyph-name="phone-4" d="M944.309 167.605l-149.173 149.203c-29.726 29.606-78.908 28.702-109.658-2.078l-75.144-75.144c-4.759 2.62-9.668 5.361-14.818 8.252-47.465 26.293-112.429 62.344-180.766 130.741-68.548 68.548-104.629 133.602-131.012 181.097-2.771 5.030-5.451 9.879-8.072 14.487l75.234 75.204c30.81 30.81 31.654 79.992 1.988 109.688l-149.173 149.203c-29.636 29.636-78.878 28.732-109.658-2.078l-42.044-42.285 1.144-1.144c-14.095-17.98-25.871-38.731-34.635-61.109-8.072-21.293-13.101-41.623-15.42-61.982-19.697-163.298 54.935-312.531 257.446-515.072 279.944-279.913 505.525-258.771 515.253-257.747 21.203 2.53 41.502 7.59 62.163 15.601 22.167 8.674 42.918 20.42 60.898 34.485l0.904-0.813 42.586 41.713c30.72 30.81 31.624 79.992 1.988 109.719z" />
<glyph unicode="&#xe936;" glyph-name="pinterest" d="M810.048 855.072c-70.496 67.68-168.032 104.928-274.656 104.928-162.88 0-263.072-66.784-318.432-122.784-68.224-69.024-107.36-160.672-107.36-251.456 0-113.984 47.68-201.472 127.52-234.016 5.376-2.208 10.752-3.296 16.032-3.296 16.832 0 30.176 11.008 34.816 28.704 2.688 10.144 8.928 35.168 11.648 46.016 5.824 21.44 1.12 31.776-11.552 46.72-23.104 27.328-33.856 59.648-33.856 101.696 0 124.896 92.992 257.632 265.376 257.632 136.768 0 221.728-77.728 221.728-202.88 0-78.976-17.024-152.096-47.904-205.92-21.472-37.408-59.232-81.984-117.184-81.984-25.056 0-47.584 10.304-61.792 28.256-13.408 16.96-17.856 38.88-12.448 61.728 6.112 25.792 14.4 52.736 22.464 78.752 14.688 47.52 28.544 92.416 28.544 128.256 0 61.28-37.664 102.432-93.728 102.432-71.232 0-127.040-72.352-127.040-164.704 0-45.28 12.032-79.168 17.472-92.192-8.96-38.016-62.304-264.064-72.416-306.688-5.856-24.896-41.088-221.408 17.248-237.088 65.536-17.6 124.096 173.792 130.048 195.424 4.832 17.6 21.728 84.096 32.096 124.992 31.648-30.464 82.56-51.072 132.128-51.072 93.44 0 177.44 42.048 236.608 118.368 57.344 74.048 88.96 177.248 88.96 290.56 0 88.608-38.048 175.936-104.384 239.616z" />
<glyph unicode="&#xe937;" glyph-name="plane" d="M929.056 360.512v-48.896c0-12.864-5.152-23.168-15.424-30.88-7.712-5.152-15.424-7.712-23.168-7.712-2.56 0-5.152 0-10.304 0l-306.176 74.624v-295.872l84.896-59.168c7.712-5.152 10.304-12.864 10.304-20.576v-10.304c0-7.712-2.56-15.424-7.712-20.576s-10.304-5.152-18.016-5.152c0 0-2.56 0-2.56 0l-136.352 20.576-136.352-20.576c-7.712 0-15.424 0-20.576 5.152s-7.712 12.864-7.712 20.576v10.304c0 7.712 5.152 15.424 10.304 20.576l84.896 59.168v295.872l-308.736-72.032c-10.304-2.56-23.168 0-33.44 7.712-7.712 5.152-12.864 18.016-12.864 28.288v48.896c0 12.864 7.712 25.728 20.576 33.44l334.464 185.248v308.736c-2.56 41.152 30.88 72.032 69.472 72.032s72.032-30.88 72.032-72.032v-308.736l334.464-185.248c10.304-5.152 18.016-18.016 18.016-33.44z" />
<glyph unicode="&#xe938;" glyph-name="play" d="M512-64c-282.784 0-512 229.216-512 512s229.216 512 512 512c282.784 0 512-229.216 512-512s-229.216-512-512-512zM512-35.552c267.072 0 483.552 216.48 483.552 483.552s-216.48 483.552-483.552 483.552c-267.072 0-483.552-216.48-483.552-483.552s216.48-483.552 483.552-483.552zM412.448 661.344v-425.952l212.992 212.992z" />
<glyph unicode="&#xe939;" glyph-name="plus" d="M914.286 539.429v-109.714c0-30.281-24.576-54.857-54.857-54.857h-237.714v-237.714c0-30.281-24.576-54.857-54.857-54.857h-109.714c-30.281 0-54.857 24.576-54.857 54.857v237.714h-237.714c-30.281 0-54.857 24.576-54.857 54.857v109.714c0 30.281 24.576 54.857 54.857 54.857h237.714v237.714c0 30.281 24.576 54.857 54.857 54.857h109.714c30.281 0 54.857-24.576 54.857-54.857v-237.714h237.714c30.281 0 54.857-24.576 54.857-54.857z" />
<glyph unicode="&#xe93a;" glyph-name="plus-2" d="M510.368-64c-279.872 0-510.368 230.496-510.368 513.632s230.496 510.368 510.368 510.368 510.368-230.496 510.368-510.368c3.296-283.168-227.2-513.632-510.368-513.632zM510.368 900.736c-250.24 0-451.072-200.864-451.072-451.072s204.128-454.368 454.368-454.368c250.24 0 454.368 204.128 454.368 454.368s-207.424 451.072-457.664 451.072zM714.496 420h-404.992c-16.448 0-29.632 13.184-29.632 29.632s13.184 29.632 29.632 29.632h401.696c16.448 0 29.632-13.184 29.632-29.632s-13.184-29.632-26.336-29.632zM510.368 219.168c-16.448 0-29.632 13.184-29.632 29.632v401.696c0 16.448 13.184 29.632 29.632 29.632s29.632-13.184 29.632-29.632v-401.696c0-16.448-13.184-29.632-29.632-29.632z" />
<glyph unicode="&#xe93b;" glyph-name="question" d="M905.362 916.114h-390.407c-67.935 0-124.284-54.652-124.284-122.587v-171.856h-266.971c-67.935 0-123.728-55.501-123.728-123.436v-286.779c0-67.935 55.764-122.032 123.728-122.032h359.248l111.821-102.488c4.827-4.242 11.030-6.788 17.262-6.788 3.394 0 6.788 0.556 10.181 1.989 9.333 3.95 15.009 13.019 15.009 23.201v299.798c0 14.16-11.323 25.483-25.483 25.483s-25.483-11.323-25.483-25.483v-242.044l-76.156 70.217c-4.827 4.242-10.767 7.080-16.998 7.080h-369.459c-39.643 0-72.763 31.422-72.763 71.066v286.779c0 39.907 33.119 72.47 72.763 72.47h266.971v-270.073c0-10.181 6.524-19.251 15.857-23.201s20.392-2.253 27.736 4.535l93.418 85.226c2.545 2.253 4.827 4.242 6.788 6.232 5.091 4.535 10.181 9.333 12.464 10.767 1.989 0.293 7.373 0.293 11.878 0 4.535 0 9.918 0 16.15 0h330.372c67.935 0 122.295 55.208 122.295 122.88v286.515c0 67.935-54.36 122.587-122.295 122.587zM976.72 506.748c0-39.907-31.715-71.914-71.329-71.914h-330.372c-5.939 0-11.030 0-15.301 0-30.574 0.556-36.513-2.838-60.006-24.342-1.989-1.697-4.535-3.686-7.080-5.939l-50.966-46.139v435.141c0 39.907 33.412 71.621 73.318 71.621h390.407c39.907 0 71.329-31.715 71.329-71.621v-286.779zM190.815 386.706c-14.16 0-25.483-11.323-25.483-25.483s11.323-25.483 25.483-25.483h2.253c14.16 0 25.483 11.323 25.483 25.483s-11.323 25.483-25.483 25.483h-2.253zM704.366 564.209c-14.16 0-24.927-11.323-24.927-25.483v-0.293c0-14.16 10.767-25.483 24.927-25.483s25.483 11.615 25.483 25.483-11.323 25.776-25.483 25.776zM279.435 386.706c-14.16 0-25.483-11.323-25.483-25.483s11.323-25.483 25.483-25.483h1.989c14.16 0 25.483 11.323 25.483 25.483s-11.323 25.483-25.483 25.483h-1.989zM710.042 771.438c-41.896 0-76.156-34.26-76.156-76.156 0-14.16 11.323-25.483 25.483-25.483s25.483 11.323 25.483 25.483c0 13.868 11.323 25.19 25.19 25.19s25.19-11.323 25.19-25.19c0-6.788-8.221-14.424-20.948-24.927-16.15-13.575-36.25-30.018-36.25-57.754 0-13.868 11.615-24.927 25.483-24.927h0.293c14.16 0 25.483 11.323 25.19 25.19 0 3.686 11.615 13.312 17.847 18.403 16.413 13.868 39.351 32.827 39.351 63.985 0 42.189-33.968 76.156-76.156 76.156z" />
<glyph unicode="&#xe93c;" glyph-name="quote" d="M369.607 825.884c-36.779-47.815-72.647-114.46-107.577-199.964s-51.484-164.124-49.636-235.833c16.555 5.518 35.868 8.277 57.913 8.277 53.333 0 98.389-15.161 135.168-45.511s55.154-75.861 55.154-136.533c0-58.852-18.859-108.032-56.548-147.57s-86.898-59.307-147.57-59.307c-79.076 0-140.203 27.136-183.438 81.38s-64.825 123.648-64.825 208.242c0 90.112 21.618 187.563 64.825 292.38s106.183 208.697 188.928 311.694l107.577-77.227zM921.259 825.884c-36.779-47.815-72.647-114.46-107.577-199.964s-51.484-164.124-49.636-235.833c16.555 5.518 35.868 8.277 57.913 8.277 53.333 0 98.389-15.161 135.168-45.511s55.154-75.861 55.154-136.533c0-58.852-18.859-108.032-56.548-147.57s-86.898-59.307-147.57-59.307c-79.076 0-140.203 27.136-183.41 81.38s-64.825 123.648-64.825 208.242c0 90.112 21.618 187.563 64.825 292.38s106.183 208.697 188.928 311.694l107.577-77.227z" />
<glyph unicode="&#xe93d;" glyph-name="search" d="M86.56 561.824c0 179.584 142.912 326.112 319.328 326.112 175.84 0 319.328-145.952 319.328-326.112s-142.912-326.112-319.328-326.112c-176.416 0-319.328 146.528-319.328 326.112zM691.68 291.552c64.096 70.88 104.096 165.76 104.096 270.272 0 219.2-174.656 398.176-389.888 398.176s-389.888-178.976-389.888-398.176c0-219.2 174.656-398.176 389.888-398.176 87.616 0 168.192 29.44 233.472 79.264l289.92-296.096c7.072-7.2 15.872-10.816 24.704-10.816s18.24 3.616 24.704 10.816c13.536 13.824 13.536 36.64 0 51.040l-286.976 293.696z" />
<glyph unicode="&#xe93e;" glyph-name="search-2" d="M413.184 852.224c168.416 0 305.408-136.992 305.408-305.408s-136.992-305.408-305.408-305.408c-168.416 0-305.408 136.992-305.408 305.408s136.992 305.408 305.408 305.408zM973.024 27.84l-243.552 253.312c62.624 74.432 96.928 168.128 96.928 265.632 0 227.84-185.376 413.184-413.184 413.184s-413.184-185.376-413.184-413.184c0-227.84 185.376-413.184 413.184-413.184 85.536 0 167.040 25.792 236.736 74.784l245.408-255.232c10.272-10.656 24.064-16.544 38.848-16.544 13.984 0 27.264 5.344 37.344 15.040 21.408 20.608 22.112 54.784 1.504 76.192z" />
<glyph unicode="&#xe93f;" glyph-name="share" d="M361.376 448c0-3.488-0.8-6.784-0.992-10.272l366.88-183.456c31.456 26.624 71.616 43.232 116 43.232 99.808 0 180.736-80.896 180.736-180.736 0-99.904-80.896-180.768-180.736-180.768-99.904 0-180.672 80.896-180.672 180.768 0 3.616 0.768 6.848 0.992 10.336l-366.912 183.36c-31.552-26.496-71.616-43.104-116-43.104-99.84 0-180.736 80.832-180.736 180.608 0 99.872 80.896 180.768 180.704 180.768 44.384 0 84.48-16.672 116-43.168l366.912 183.392c-0.224 3.488-0.992 6.784-0.992 10.4 0 99.712 80.768 180.608 180.672 180.608 99.808 0 180.736-80.896 180.736-180.608 0-99.904-80.896-180.768-180.736-180.768-44.512 0-84.608 16.672-116 43.296l-366.88-183.52c0.224-3.488 0.992-6.784 0.992-10.368v0z" />
<glyph unicode="&#xe940;" glyph-name="share-2" d="M811.136 302.688c-58.848 0-111.328-28.032-144.896-71.392l-281.056 156.992c6.592 18.912 10.208 39.296 10.208 60.32 0 21.248-3.616 41.44-10.4 60.544l280.864 156.8c33.344-43.552 86.048-71.808 145.088-71.808 100.704 0 182.912 82.016 182.912 182.912s-82.016 182.912-182.912 182.912-182.912-82.016-182.912-182.912c0-21.248 3.616-41.632 10.4-60.544l-280.64-156.8c-33.344 43.776-86.048 71.808-145.088 71.808-100.704 0-182.912-82.016-182.912-182.912s82.208-182.912 183.136-182.912c59.072 0 111.744 28.256 145.312 72.032l280.864-156.992c-6.784-19.136-10.624-39.712-10.624-60.96 0-100.704 82.016-182.912 182.912-182.912s182.912 82.016 182.912 182.912-82.208 182.912-183.136 182.912zM811.136 902.432c69.248 0 125.568-56.288 125.568-125.568s-56.288-125.568-125.568-125.568c-69.248 0-125.568 56.288-125.568 125.568s56.512 125.568 125.568 125.568zM212.864 323.072c-69.248 0-125.568 56.288-125.568 125.568s56.288 125.568 125.568 125.568c69.248 0 125.568-56.288 125.568-125.568s-56.512-125.568-125.568-125.568zM811.136-5.568c-69.248 0-125.568 56.288-125.568 125.568s56.288 125.568 125.568 125.568c69.248 0 125.568-56.288 125.568-125.568s-56.288-125.568-125.568-125.568z" />
<glyph unicode="&#xe941;" glyph-name="skype" d="M987.776 339.296c7.296 33.312 11.168 67.872 11.168 103.328 0 265.952-215.616 481.568-481.568 481.568-28.064 0-55.584-2.432-82.368-7.040-43.040 27.104-93.952 42.848-148.576 42.848-154.24 0-279.264-125.056-279.264-279.264 0-51.552 14.016-99.808 38.4-141.248-6.4-31.296-9.728-63.68-9.728-96.832 0-265.952 215.616-481.568 481.568-481.568 30.112 0 59.584 2.784 88.192 8.064 39.328-21.12 84.256-33.152 132.032-33.152 154.24 0 279.264 125.024 279.264 279.264 0 44.576-10.496 86.656-29.056 124.032zM764.352 212.48c-22.272-31.52-55.2-56.512-97.856-74.24-42.24-17.568-92.864-26.464-150.496-26.464-69.184 0-127.168 12.16-172.416 36.16-32.352 17.472-59.040 41.152-79.296 70.368-20.448 29.504-30.848 58.784-30.848 87.008 0 17.632 6.752 32.96 20.096 45.472 13.184 12.416 30.112 18.688 50.272 18.688 16.544 0 30.816-4.96 42.432-14.784 11.072-9.408 20.608-23.296 28.224-41.248 8.544-19.552 17.824-36.064 27.68-49.056 9.44-12.512 23.040-23.008 40.384-31.2 17.472-8.256 40.992-12.448 69.952-12.448 39.808 0 72.448 8.512 96.992 25.28 23.968 16.384 35.648 36.032 35.648 60.096 0 19.008-6.080 33.952-18.592 45.664-13.12 12.256-30.4 21.792-51.392 28.352-21.888 6.816-51.584 14.176-88.352 21.888-49.792 10.656-92.096 23.328-125.824 37.6-0.128 0.064-0.256 0.096-0.384 0.16-34.528 14.688-62.368 35.040-82.72 60.544-20.672 25.888-31.168 58.336-31.168 96.512 0 36.384 11.008 69.184 32.704 97.472 21.536 28.096 52.992 49.92 93.472 64.896 39.968 14.784 87.52 22.272 141.312 22.272 43.008 0 80.832-4.96 112.384-14.784 31.744-9.888 58.496-23.232 79.52-39.648 21.184-16.544 36.928-34.24 46.816-52.64 9.984-18.56 15.072-37.056 15.072-54.944 0-17.216-6.656-32.832-19.744-46.464-13.184-13.696-29.824-20.672-49.472-20.672-17.824 0-31.808 4.352-41.472 12.928-9.024 7.968-18.368 20.384-28.736 38.272-12 22.816-26.528 40.8-43.2 53.472-16.192 12.32-43.232 18.56-80.416 18.56-34.528 0-62.592-6.944-83.424-20.608-20.096-13.184-29.856-28.256-29.856-46.144 0-10.976 3.136-20.128 9.6-28.032 6.848-8.352 16.512-15.712 28.704-21.792 12.672-6.368 25.696-11.424 38.752-15.040 13.376-3.712 35.84-9.216 66.624-16.32 32.448-6.976 62.656-14.624 90.176-22.848 5.536-1.664 10.976-3.328 16.288-5.024 32.064-10.272 59.776-22.912 82.368-37.632 23.072-15.008 41.344-34.304 54.304-57.344 12.992-23.104 19.584-51.648 19.584-84.8 0-39.68-11.36-75.84-33.696-107.488z" />
<glyph unicode="&#xe942;" glyph-name="smile" d="M509.6-4.096c-124.832 0-238.080 50.592-320.288 132.352-32.832 32.64-60.704 70.272-82.4 111.616-33.056 62.976-51.776 134.592-51.776 210.496 0 250.624 203.872 454.496 454.496 454.496 118.88 0 227.2-45.888 308.288-120.864 42.048-38.88 76.736-85.536 101.76-137.696 28.48-59.36 44.448-125.792 44.448-195.936 0-250.624-203.872-454.496-454.496-454.496zM509.6 960c-280.992 0-509.6-228.608-509.6-509.6s228.608-509.6 509.6-509.6 509.6 228.608 509.6 509.6c0 280.992-228.608 509.6-509.6 509.6zM343.168 619.136c30.432 0 55.104-24.672 55.104-55.104s-24.672-55.072-55.104-55.072c-30.432 0-55.104 24.64-55.104 55.072s24.672 55.104 55.104 55.104zM684.032 619.136c30.432 0 55.104-24.672 55.104-55.104s-24.672-55.072-55.104-55.072c-30.432 0-55.104 24.64-55.104 55.072s24.672 55.104 55.104 55.104zM508.608 168.096c106.592 0 208.736 54.496 267.2 144.992l-46.272 29.888c-53.696-83.104-151.936-129.472-250.304-118.112-76.64 8.832-147.52 52.992-189.6 118.112l-46.272-29.888c50.912-78.816 136.768-132.256 229.568-142.944 11.936-1.376 23.808-2.048 35.68-2.048z" />
<glyph unicode="&#xe943;" glyph-name="spin" d="M735.552 674.624c14.688-12.32 33.312-19.104 52.448-19.104 24.288 0 47.104 10.656 62.72 29.216 28.96 34.528 24.448 86.208-10.080 115.2-14.688 12.32-33.344 19.136-52.48 19.136-24.256 0-47.104-10.656-62.688-29.216-28.992-34.528-24.448-86.208 10.080-115.2zM928.512 581.056c-5.056 0-10.208-0.448-15.2-1.344-47.072-8.288-78.656-53.408-70.368-100.512 7.296-41.536 43.168-71.648 85.248-71.648 5.056 0 10.208 0.448 15.232 1.312 47.072 8.32 78.656 53.408 70.336 100.48-7.328 41.536-43.2 71.68-85.248 71.68zM925.504 297.408c-13.952 8.064-29.76 12.288-45.696 12.288-32.736 0-63.232-17.6-79.552-45.888-12.224-21.184-15.52-45.888-9.152-69.536s21.536-43.456 42.72-55.68c13.952-8.064 29.76-12.32 45.728-12.32 32.704 0 63.2 17.568 79.52 45.856 25.248 43.808 10.208 100-33.568 125.28zM664.704 134.368c-11.232 0-22.368-1.984-33.056-5.856-24.256-8.832-43.584-26.592-54.528-49.984s-12.064-49.632-3.232-73.92c13.856-38.080 50.368-63.648 90.848-63.648 11.232 0 22.368 1.984 33.024 5.856 24.224 8.832 43.552 26.56 54.496 50.016s12.064 49.664 3.264 73.888c-13.824 38.048-50.368 63.648-90.848 63.648zM418.912 133.184c-11.264 4.096-22.976 6.176-34.752 6.176-42.56 0-80.928-26.912-95.488-66.912-9.312-25.536-8.096-53.12 3.392-77.728s31.808-43.264 57.344-52.544c11.264-4.096 22.944-6.176 34.784-6.176 42.592 0 80.96 26.912 95.488 66.88 9.28 25.472 8.064 53.056-3.424 77.696s-31.84 43.328-57.312 52.608zM261.568 271.328c-19.008 32.896-54.4 53.312-92.448 53.312-18.592 0-36.96-4.96-53.184-14.304-24.672-14.24-42.304-37.248-49.664-64.736s-3.616-56.224 10.656-80.896c19.008-32.896 54.432-53.344 92.448-53.344 18.592 0 36.96 4.96 53.184 14.304 50.88 29.376 68.416 94.72 39.040 145.632zM120.672 382.688c54.144 0 100.32 38.784 109.728 92.224 5.152 29.376-1.408 58.976-18.496 83.36s-42.656 40.704-72.032 45.888c-6.496 1.12-13.088 1.696-19.52 1.696-54.144 0-100.32-38.784-109.728-92.224-5.152-29.344 1.408-58.944 18.496-83.36s42.688-40.704 72.032-45.888c6.464-1.152 13.056-1.728 19.52-1.728zM260.864 620.704c27.296 0 53.856 9.696 74.848 27.264 23.808 19.968 38.4 48.096 41.12 79.136s-6.784 61.28-26.784 85.088c-22.208 26.464-54.784 41.632-89.344 41.632-27.328 0-53.92-9.664-74.848-27.264-23.84-20-38.464-48.128-41.184-79.136s6.816-61.216 26.816-85.088c22.24-26.464 54.784-41.632 89.376-41.632zM651.232 833.216c0-70.016-56.768-126.784-126.784-126.784s-126.784 56.768-126.784 126.784c0 70.016 56.768 126.784 126.784 126.784s126.784-56.768 126.784-126.784z" />
<glyph unicode="&#xe944;" glyph-name="star" d="M556.416 909.248l118.72-241.056c7.264-14.496 21.76-25.376 38.048-27.2l266.432-38.976c41.696-6.336 57.984-57.088 28.096-86.080l-193.024-187.584c-11.776-11.776-17.216-28.096-14.496-44.416l45.312-264.608c7.264-40.768-36.256-72.48-73.408-53.472l-237.408 125.056c-14.496 8.16-32.608 8.16-47.136 0l-238.336-125.056c-37.152-19.040-79.744 11.776-73.408 53.472l45.312 264.608c2.72 16.32-2.72 32.608-14.496 44.416l-191.2 187.584c-29.888 28.992-13.6 79.744 28.096 86.080l266.432 38.976c16.32 2.72 30.816 12.672 38.048 27.2l117.792 241.056c19.040 37.152 72.48 37.152 90.624 0z" />
<glyph unicode="&#xe945;" glyph-name="tag" d="M927.808 960h-288.576c-52.896 0-126.784-30.592-164.192-68l-446.976-446.976c-37.408-37.408-37.408-98.624 0-136.032l344.896-344.896c37.408-37.408 98.624-37.408 136.032 0l446.976 446.976c37.408 37.408 68 111.296 68 164.192v288.576c0 52.896-43.296 96.192-96.192 96.192zM800 640c-53.024 0-96 42.976-96 96s42.976 96 96 96 96-42.976 96-96c0-53.024-42.976-96-96-96z" />
<glyph unicode="&#xe946;" glyph-name="talk" d="M53.273 702.876c-35.59-44.731-53.273-93.234-53.273-145.932v0c0-44.931 13.512-87.465 40.361-127.251s63.813-73.154 110.742-100.402c-3.771-9.141-7.742-17.508-11.739-25.051s-8.741-14.91-14.111-21.879c-5.57-6.968-9.74-12.538-12.713-16.509s-7.942-9.541-14.711-16.709c-6.768-7.168-11.139-11.938-13.112-14.111 0 0.4-0.799-0.4-2.198-2.572-1.598-1.998-2.398-2.972-2.572-2.772s-0.999-0.799-2.198-2.772c-1.399-1.998-1.998-3.172-1.998-3.172l-1.399-2.772c-0.599-1.199-0.999-2.198-1.199-3.372s-0.2-2.398-0.2-3.771 0.2-2.572 0.599-3.771c0.799-4.97 2.972-8.941 6.569-11.938s7.568-4.571 11.739-4.571h1.798c18.882 2.572 35.191 5.769 48.902 9.141 58.243 15.11 110.942 39.362 157.846 72.554 33.992-5.969 67.384-9.141 99.803-9.141 72.379 0 139.164 12.912 200.604 38.762s109.943 61.24 145.533 105.772c35.59 44.731 53.273 93.234 53.273 145.932s-17.683 101.201-53.273 145.932c-35.59 44.731-84.093 79.922-145.533 105.772-62.039 26.449-128.824 39.362-201.204 39.362s-139.164-12.912-200.604-38.962c-61.64-25.85-110.142-61.040-145.733-105.772zM858.861 643.234c8.741-28.422 13.112-57.069 13.112-86.291 0-50.7-12.713-98.804-37.963-144.134-25.45-45.331-61.64-85.492-108.944-120.283-43.932-31.819-93.833-56.27-149.904-73.154-56.070-17.108-114.513-25.45-175.354-25.45-11.339 0-28.023 0.799-49.901 2.198 76.151-49.901 165.413-74.952 267.988-74.952 32.593 0 65.811 2.972 100.002 9.141 46.929-33.392 99.603-57.444 157.846-72.554 13.712-3.372 29.821-6.369 48.902-9.141 4.571-0.4 8.741 0.999 12.538 3.971s6.169 7.168 7.368 12.538c-0.2 2.198 0 3.572 0.599 3.771s0.4 1.399-0.2 3.771c-0.799 2.198-1.199 3.372-1.199 3.372l-1.399 2.772c-0.4 0.799-0.999 1.798-1.998 3.172s-1.798 2.198-2.198 2.772c-0.599 0.599-1.399 1.598-2.572 2.772-1.199 1.399-1.998 2.198-2.198 2.572-1.998 2.198-6.169 6.968-13.112 14.111-6.768 7.168-11.739 12.713-14.711 16.709s-7.368 9.541-12.713 16.509c-5.57 6.968-10.14 14.311-14.111 21.879s-7.942 15.909-11.739 25.051c46.929 27.248 83.893 60.641 110.742 100.202s40.361 81.92 40.361 127.426c0 46.53-14.111 90.062-42.533 130.622-29.421 40.161-67.984 73.753-116.711 100.602z" />
<glyph unicode="&#xe947;" glyph-name="tick" d="M1008.992 809.024c-20 20-52.416 20-72.416 0l-613.408-613.408-235.776 235.776c-20 20-52.416 20-72.416 0s-20-52.416 0-72.416l272-271.968c20-20 52.416-19.968 72.416 0l649.6 649.6c20 20 20 52.416 0 72.416z" />
<glyph unicode="&#xe948;" glyph-name="tumblr" d="M825.056 177.376c-5.312 2.88-11.84 2.592-16.896-0.736-46.752-30.688-94.048-46.272-140.576-46.272-25.376 0-47.2 5.696-66.848 17.504-13.28 7.808-22.080 17.824-26.88 30.592-3.648 9.824-8.032 36-8.032 104.832v237.664h218.56c9.12 0 16.512 7.392 16.512 16.512v155.584c0 9.12-7.392 16.512-16.512 16.512h-218.56v233.92c0 9.12-7.392 16.512-16.512 16.512h-140.992c-8.32 0-15.36-6.208-16.384-14.496-6.080-48.992-17.184-89.664-33.056-120.896-15.68-30.976-36.8-57.888-62.816-80-25.888-22.080-57.632-39.296-94.336-51.168-6.816-2.208-11.424-8.544-11.424-15.712v-140.288c0-9.12 7.392-16.512 16.512-16.512h93.056v-331.104c0-47.872 5.024-83.776 15.392-109.728 10.432-26.272 29.152-51.2 55.712-74.048 26.176-22.464 58.016-39.968 94.688-52.064 36.256-11.936 78.4-18.016 125.28-18.016 41.024 0 79.744 4.192 115.104 12.448 35.456 8.288 75.232 22.816 118.304 43.168 5.792 2.72 9.472 8.544 9.472 14.944v156.288c0 6.080-3.328 11.648-8.672 14.528z" />
<glyph unicode="&#xe949;" glyph-name="twitter" d="M1000.8 770.432c-16.096-7.136-32.64-13.152-49.536-18.048 20 22.624 35.264 49.248 44.576 78.4 2.080 6.528-0.064 13.664-5.44 17.952s-12.8 4.8-18.72 1.28c-35.904-21.28-74.624-36.576-115.2-45.536-40.896 39.968-96.448 62.72-153.856 62.72-121.216 0-219.84-98.624-219.84-219.808 0-9.536 0.608-19.040 1.792-28.416-150.4 13.216-290.24 87.136-386.272 204.928-3.424 4.192-8.704 6.464-14.080 6.016s-10.24-3.456-12.992-8.16c-19.488-33.408-29.76-71.648-29.76-110.528 0-52.96 18.912-103.232 52.32-142.496-10.144 3.52-20 7.904-29.408 13.152-5.056 2.816-11.2 2.752-16.224-0.096s-8.16-8.16-8.288-13.952c-0.032-0.96-0.032-1.952-0.032-2.944 0-79.072 42.56-150.24 107.616-189.056-5.6 0.544-11.168 1.376-16.736 2.432-5.728 1.088-11.616-0.928-15.456-5.28s-5.152-10.432-3.36-16c24.096-75.168 86.080-130.496 161.024-147.328-62.176-38.944-133.248-59.328-207.872-59.328-15.584 0-31.232 0.928-46.56 2.72-7.616 0.896-14.88-3.584-17.472-10.816s0.16-15.328 6.624-19.488c95.872-61.472 206.72-93.952 320.576-93.952 223.808 0 363.808 105.536 441.856 194.080 97.312 110.4 153.12 256.512 153.12 400.896 0 6.016-0.096 12.128-0.288 18.208 38.4 28.928 71.456 63.936 98.336 104.16 4.096 6.112 3.648 14.176-1.088 19.808s-12.608 7.456-19.328 4.48z" />
<glyph unicode="&#xe94a;" glyph-name="user" d="M101.472-63.808c0 0-54.784-3.616-78.944 29.6-13.056 17.952-3.968 54.304 4.96 74.592l21.856 49.696c0 0 60.416 134.88 129.248 213.056 42.24 47.936 92.48 37.024 125.024 21.472 20.032-9.6 42.656-37.568 59.2-52.352 22.784-20.416 63.040-43.616 128.832-44.896h40.384c65.76 1.312 105.984 24.48 128.768 44.896 16.544 14.816 38.528 43.616 58.368 53.536 29.824 14.912 75.264 24.096 116.384-22.624 68.832-78.176 123.328-215.488 123.328-215.488l22.4-48.736c9.28-20.128 18.752-56.32 6.048-74.496-22.656-32.512-73.472-28.192-73.472-28.192h-812.384zM503.488 353.952c-142.752 0-258.432 138.4-258.432 309.024 0 170.56 115.68 297.024 258.432 297.024 142.816 0 258.592-126.464 258.592-297.024 0-170.624-115.776-309.024-258.592-309.024z" />
<glyph unicode="&#xe94b;" glyph-name="user-2" horiz-adv-x="928" d="M93.088 60.128c0 123.168 86.56 229.6 211.616 279.712 45.504-39.264 100.864-62.496 160.736-62.496s115.232 23.232 160.736 62.496c125.056-50.112 211.616-156.544 211.616-279.712h-744.736zM465.44 866.912c100.896 0 186.176-113.664 186.176-248.256s-85.28-248.256-186.176-248.256-186.176 113.696-186.176 248.256c0 134.592 85.28 248.256 186.176 248.256zM688.512 413.888c35.136 57.056 56.224 127.84 56.224 204.768 0 188.512-125.024 341.344-279.264 341.344s-279.264-152.832-279.264-341.344c0-76.928 21.088-147.712 56.224-204.768-144.352-68.48-242.4-201.088-242.4-353.76v-31.040c0-34.272 27.808-62.048 62.048-62.048h806.784c34.272 0 62.048 27.808 62.048 62.048v31.040c0 152.704-98.048 285.28-242.4 353.792z" />
<glyph unicode="&#xe94c;" glyph-name="user-3" d="M512 448c-119.104 0-216 96.896-216 216s96.896 216 216 216c119.104 0 216-96.896 216-216s-96.896-216-216-216zM874.048 298.048c-55.776 55.776-122.144 97.056-194.56 122.048 77.568 53.408 128.512 142.816 128.512 243.936 0 163.2-132.8 296-296 296s-296-132.8-296-296c0-101.088 50.944-190.496 128.512-243.936-72.416-24.992-138.784-66.272-194.56-122.048-96.704-96.704-149.952-225.28-149.952-362.048h80c0 238.208 193.792 432 432 432s432-193.792 432-432h80c0 136.768-53.248 265.344-149.952 362.048z" />
<glyph unicode="&#xe94d;" glyph-name="vimeo" d="M1019.648 725.216c7.648 42.88 7.456 86.976-19.008 120.288-36.96 46.752-115.584 48.48-169.472 40.224-43.84-6.688-192.064-72.096-242.496-228.672 89.376 6.784 136.192-6.432 127.616-104.832-3.616-41.184-24.384-86.272-47.616-129.504-26.816-49.856-77.088-147.712-143.008-77.184-59.36 63.488-54.912 184.928-68.48 265.792-7.552 45.376-15.552 101.92-30.432 148.576-12.8 40.128-42.176 88.512-78.112 99.008-38.592 11.328-86.304-6.368-114.304-22.848-89.216-52.416-157.184-127.008-234.336-188.544v0c12.576-26.912 19.424-44.352 41.92-47.616 53.12-7.808 103.744 49.504 139.040-10.144 21.472-36.448 28.192-76.384 41.952-115.68 18.4-52.32 32.576-109.28 47.616-169.472 25.44-101.92 56.736-254.208 144.8-291.488 44.928-19.072 112.48 6.432 146.688 26.72 92.64 54.816 164.832 134.304 226.624 215.168 141.28 191.392 219.232 408.192 231.008 470.176z" />
<glyph unicode="&#xe94e;" glyph-name="youtube" d="M379.425 255.924v379.425l317.767-189.701-317.767-189.701zM967.288 729.404c-27.408 48.934-57.148 57.932-117.695 61.353-60.481 4.118-212.578 5.839-344.347 5.839-132.031 0-284.193-1.721-344.609-5.774-60.416-3.486-90.221-12.419-117.869-61.418-28.214-48.869-42.747-133.033-42.747-281.23v-0.501c0-147.543 14.532-232.361 42.747-280.707 27.648-48.934 57.388-57.802 117.825-61.919 60.481-3.551 212.643-5.643 344.674-5.643 131.769 0 283.866 2.092 344.413 5.578 60.547 4.118 90.286 12.985 117.695 61.919 28.476 48.368 42.877 133.164 42.877 280.707v0.501c0 148.24-14.401 232.426-42.943 281.295v0z" />
<glyph unicode="&#xe94f;" glyph-name="youtube-2" d="M807.136 210.976h-56.192l0.256 32.64c0 14.496 11.904 26.368 26.464 26.368h3.584c14.592 0 26.528-11.872 26.528-26.368l-0.64-32.64zM596.352 280.928c-14.24 0-25.92-9.568-25.92-21.312v-158.752c0-11.712 11.648-21.28 25.92-21.28 14.304 0 25.984 9.568 25.984 21.28v158.752c0 11.744-11.68 21.312-25.984 21.312zM938.656 369.728v-302.016c0-72.448-62.816-131.712-139.616-131.712h-574.112c-76.8 0-139.616 59.264-139.616 131.712v302.016c0 72.448 62.816 131.744 139.616 131.744h574.112c76.8 0 139.616-59.296 139.616-131.744zM263.232 34.944l-0.032 318.144 71.168-0.032v47.136l-189.728 0.288v-46.336l59.232-0.16v-319.008h59.36zM476.576 305.664h-59.328v-169.888c0-24.576 1.504-36.864-0.096-41.184-4.832-13.184-26.496-27.168-34.976-1.408-1.44 4.512-0.16 18.112-0.192 41.44l-0.224 171.040h-59.008l0.192-168.384c0.032-25.792-0.576-45.056 0.192-53.792 1.44-15.456 0.928-33.44 15.264-43.712 26.688-19.232 77.856 2.88 90.656 30.368l-0.128-35.072 47.648-0.064v270.688zM666.4 111.136l-0.128 141.376c-0.032 53.888-40.352 86.144-95.072 42.56l0.224 105.12-59.264-0.096-0.288-362.848 48.736 0.704 4.448 22.592c62.272-57.12 101.408-17.984 101.344 50.56zM852.096 129.888l-44.48-0.224c-0.032-1.76-0.096-3.808-0.128-6.016v-24.832c0-13.28-10.976-24.096-24.32-24.096h-8.704c-13.344 0-24.352 10.816-24.352 24.096v65.312h101.888v38.336c0 28.032-0.704 56.032-3.040 72.064-7.296 50.688-78.432 58.72-114.368 32.768-11.264-8.096-19.904-18.944-24.896-33.504-5.056-14.56-7.552-34.496-7.552-59.776v-84.32c0.032-140.16 170.272-120.352 149.952 0.192zM623.872 587.584c3.072-7.456 7.808-13.472 14.272-18.016 6.368-4.48 14.528-6.72 24.288-6.72 8.544 0 16.128 2.304 22.72 7.072s12.128 11.84 16.64 21.28l-1.12-23.264h66.144v281.28h-52.064v-218.912c0-11.84-9.76-21.568-21.696-21.568-11.872 0-21.664 9.696-21.664 21.568v218.912h-54.336v-189.728c0-24.16 0.448-40.288 1.152-48.448 0.736-8.128 2.592-15.904 5.664-23.424zM423.456 746.432c0 27.008 2.24 48.096 6.72 63.296 4.512 15.136 12.608 27.328 24.32 36.512 11.68 9.216 26.656 13.856 44.832 13.856 15.296 0 28.416-3.008 39.36-8.896 11.008-5.92 19.488-13.6 25.376-23.072 5.984-9.504 10.080-19.296 12.256-29.28 2.208-10.144 3.296-25.44 3.296-46.048v-71.136c0-26.080-1.056-45.28-3.072-57.472-2.016-12.224-6.336-23.552-13.024-34.176-6.592-10.528-15.136-18.368-25.44-23.392-10.432-5.056-22.4-7.552-35.872-7.552-15.072 0-27.776 2.080-38.24 6.432-10.496 4.32-18.624 10.848-24.384 19.488-5.824 8.672-9.952 19.232-12.416 31.552s-3.68 30.816-3.68 55.456l0.032 74.464zM475.264 634.72c0-15.936 11.84-28.928 26.304-28.928s26.272 12.992 26.272 28.928v149.728c0 15.904-11.808 28.896-26.272 28.896s-26.304-12.992-26.304-28.896v-149.728zM292.192 559.104h62.4l0.064 215.712 73.728 184.8h-68.256l-39.2-137.248-39.744 137.632h-67.552l78.432-185.28 0.096-215.616z" />
<glyph unicode="&#xe950;" glyph-name="folder-2" d="M238.933 558.933c-4.335 0-8.175-2.935-9.301-7.117l-195.499-487.817v-17.067c0-12.527-0.802-17.067 9.643-17.067h763.887c19.729 0 37.103 13.295 41.813 30.942l174.524 481.058c0 0 0 10.667 0 17.067h-785.067zM217.276 593.067h704.324v106.974c0 25.719-20.924 46.626-46.626 46.626h-422.451l-85.333 119.467h-320.563c-25.702 0-46.626-20.924-46.626-46.626v-713.318l175.479 455.97c4.693 17.613 22.067 30.908 41.796 30.908z" />
<glyph unicode="&#xe951;" glyph-name="folder-3" d="M983.385 683.083c-27.072 27.076-59.483 40.612-97.231 40.612h-413.538v19.692c0 37.744-13.542 70.155-40.615 97.224-27.076 27.076-59.49 40.621-97.233 40.621h-196.923c-37.752 0-70.161-13.542-97.233-40.621-27.076-27.070-40.612-59.481-40.612-97.224v-590.774c0-37.737 13.536-70.148 40.612-97.218 27.076-27.083 59.49-40.627 97.233-40.627h748.307c37.75 0 70.161 13.542 97.231 40.627 27.085 27.072 40.615 59.483 40.615 97.218v433.228c0.002 37.746-13.527 70.155-40.612 97.242zM945.228 152.613c0-16.405-5.738-30.376-17.222-41.852-11.484-11.478-25.434-17.215-41.852-17.215h-748.309c-16.411 0-30.357 5.738-41.845 17.215-11.488 11.475-17.228 25.447-17.228 41.852v590.765c0 16.405 5.74 30.357 17.228 41.845 11.48 11.482 25.432 17.228 41.845 17.228h196.93c16.411 0 30.363-5.74 41.852-17.228 11.482-11.488 17.228-25.44 17.228-41.845v-39.388c0-16.416 5.742-30.355 17.23-41.845 11.482-11.482 25.43-17.23 41.845-17.23h433.224c16.418 0 30.368-5.746 41.852-17.228 11.484-11.48 17.222-25.432 17.222-41.845v-433.228z" />
<glyph unicode="&#xe952;" glyph-name="folder" d="M983.385 683.083c-27.072 27.076-59.483 40.612-97.231 40.612h-413.538v19.692c0 37.744-13.542 70.155-40.615 97.224-27.076 27.076-59.49 40.621-97.233 40.621h-196.923c-37.752 0-70.161-13.542-97.233-40.621-27.076-27.070-40.612-59.481-40.612-97.224v-590.774c0-37.737 13.536-70.148 40.612-97.218 27.076-27.083 59.49-40.627 97.233-40.627h748.307c37.75 0 70.161 13.542 97.231 40.627 27.085 27.072 40.615 59.483 40.615 97.218v433.228c0.002 37.746-13.527 70.155-40.612 97.242z" />
<glyph unicode="&#xe953;" glyph-name="armchair" d="M750.685 199.602h-477.339c-8.564 0-15.515 6.951-15.515 15.515v252.028c0 70.439-57.313 127.69-127.721 127.69-54.644 0-99.080-44.404-99.080-99.049 0-42.015 34.164-76.148 76.148-76.148 31.868 0 57.809 25.941 57.809 57.809 0 23.8-19.363 43.163-43.163 43.163-8.564 0-15.515 6.951-15.515 15.515s6.951 15.515 15.515 15.515c40.898 0 74.193-33.264 74.193-74.193 0-48.997-39.843-88.84-88.84-88.84-59.082 0-107.179 48.097-107.179 107.179 0 71.742 58.368 130.079 130.079 130.079 87.536 0 158.751-71.215 158.751-158.72v-236.513h446.34v236.513c0 87.505 71.215 158.72 158.72 158.72 71.742 0 130.079-58.368 130.079-130.079 0-59.082-48.097-107.179-107.179-107.179-48.966 0-88.809 39.843-88.809 88.84 0 40.898 33.264 74.193 74.162 74.193 8.564 0 15.515-6.951 15.515-15.515s-6.951-15.515-15.515-15.515c-23.8 0-43.132-19.363-43.132-43.163 0-31.868 25.91-57.809 57.778-57.809 42.015 0 76.148 34.164 76.148 76.148 0 54.644-44.435 99.049-99.049 99.049-70.439 0-127.69-57.282-127.69-127.69v-252.028c0-8.564-6.92-15.515-15.515-15.515zM871.672 50.688h-715.962c-35.312 0-64.016 28.734-64.016 64.016v289.389c0 8.564 6.951 15.515 15.515 15.515s15.515-6.951 15.515-15.515v-289.389c0-18.184 14.832-32.985 32.985-32.985h715.962c18.184 0 32.985 14.832 32.985 32.985v289.389c0 8.564 6.951 15.515 15.515 15.515s15.515-6.951 15.515-15.515v-289.389c0-35.281-28.703-64.016-64.016-64.016zM750.685 330.985h-477.339c-8.564 0-15.515 6.951-15.515 15.515s6.951 15.515 15.515 15.515h477.37c8.564 0 15.515-6.951 15.515-15.515s-6.951-15.515-15.546-15.515zM273.346 0.326c-8.564 0-15.515 6.951-15.515 15.515v38.074c0 8.564 6.951 15.515 15.515 15.515s15.515-6.951 15.515-15.515v-38.074c0-8.564-6.951-15.515-15.515-15.515zM750.685 0.326c-8.564 0-15.515 6.951-15.515 15.515v38.074c0 8.564 6.951 15.515 15.515 15.515s15.515-6.951 15.515-15.515v-38.074c0-8.564-6.92-15.515-15.515-15.515zM855.288 594.835c-8.564 0-15.515 6.951-15.515 15.515v101.128c0 84.464-68.701 153.166-153.166 153.166h-345.895c-84.464 0-153.166-68.701-153.166-153.166v-101.128c0-8.564-6.951-15.515-15.515-15.515s-15.515 6.951-15.515 15.515v101.128c0 101.531 82.634 184.196 184.196 184.196h345.895c101.531 0 184.196-82.634 184.196-184.196v-101.128c0-8.564-6.92-15.515-15.515-15.515z" />
<glyph unicode="&#xe954;" glyph-name="arrow" d="M0 784.503c170.629-224.959 339.688-447.954 510.407-673.005 172.289 225.726 342.335 448.66 513.593 673.005h-1024z" />
<glyph unicode="&#xe955;" glyph-name="conversation" d="M692 322c-11.044 0-20-8.954-20-20v-138c0-55.14-44.86-100-100-100h-215.936c-11.042 0-19.992-8.946-20-19.986l-0.028-39.764-47.736 47.734c-3.090 7.094-10.162 12.016-18.342 12.016h-129.958c-55.14 0-100 44.86-100 100v308c0 55.14 44.86 100 100 100h202c11.044 0 20 8.954 20 20s-8.956 20-20 20h-202c-77.196 0-140-62.804-140-140v-308c0-77.196 62.804-140 140-140h119.716l82.142-82.142c3.826-3.826 8.94-5.858 14.146-5.858 2.574 0 5.172 0.498 7.642 1.52 7.474 3.092 12.348 10.38 12.354 18.466l0.048 68.014h195.952c77.196 0 140 62.804 140 140v138c0 11.046-8.956 20-20 20zM733.31 960h-50.618c-160.288 0-290.692-130.404-290.692-290.692s130.404-290.69 290.69-290.69h50.618c25.018 0 49.78 3.178 73.78 9.458l74.774-74.732c3.826-3.822 8.938-5.854 14.142-5.854 2.578 0 5.178 0.498 7.652 1.524 7.472 3.096 12.344 10.388 12.344 18.476v115.712c31.658 25.638 57.956 58.024 76.412 94.204 20.962 41.092 31.588 85.47 31.588 131.902 0 160.288-130.404 290.692-290.69 290.692zM883.966 468.93c-5.014-3.778-7.966-9.694-7.966-15.976v-77.2l-48.942 48.916c-3.808 3.804-8.916 5.854-14.14 5.854-1.96 0-3.94-0.29-5.872-0.884-23.806-7.316-48.614-11.024-73.736-11.024h-50.618c-138.234 0-250.692 112.46-250.692 250.692s112.46 250.692 250.692 250.692h50.618c138.232 0 250.69-112.46 250.69-250.692 0-79.462-36.46-152.498-100.034-200.378zM798.066 741.158c-2.886 41.87-36.638 75.622-78.51 78.508-23.736 1.63-46.388-6.376-63.726-22.562-17.1-15.962-26.906-38.526-26.906-61.908 0-11.046 8.956-20 20-20s20 8.954 20 20c0 12.518 5.044 24.12 14.2 32.666 9.148 8.538 21.104 12.764 33.684 11.896 22.056-1.52 39.834-19.298 41.354-41.352 1.536-22.274-13.078-41.958-34.746-46.806-17.556-3.928-29.816-19.184-29.816-37.098v-48.050c0-11.046 8.956-20 20-20 11.046 0 20 8.954 19.998 20v46.452c40.3 9.736 67.338 46.612 64.468 88.254zM727.74 541.48c-3.72 3.72-8.88 5.86-14.14 5.86s-10.42-2.14-14.14-5.86c-3.72-3.72-5.86-8.88-5.86-14.14 0-5.28 2.142-10.44 5.86-14.16 3.72-3.72 8.88-5.84 14.14-5.84s10.42 2.12 14.14 5.84c3.72 3.74 5.86 8.88 5.86 14.16 0 5.26-2.142 10.42-5.86 14.14zM550 340h-422c-11.044 0-20-8.954-20-20s8.956-20 20-20h422c11.046 0 20 8.954 20 20s-8.956 20-20 20zM564.138 222.14c-3.718 3.72-8.878 5.86-14.138 5.86s-10.42-2.14-14.14-5.86c-3.722-3.72-5.86-8.88-5.86-14.14s2.14-10.42 5.86-14.14c3.72-3.72 8.88-5.86 14.14-5.86s10.42 2.14 14.138 5.86c3.722 3.72 5.862 8.86 5.862 14.14 0 5.26-2.142 10.42-5.862 14.14zM471.334 228h-343.334c-11.044 0-20-8.954-20-20s8.956-20 20-20h343.334c11.046 0 20 8.954 20 20s-8.956 20-20 20zM420 452h-292c-11.044 0-20-8.954-20-20s8.956-20 20-20h292c11.046 0 20 8.954 20 20s-8.956 20-20 20z" />
<glyph unicode="&#xe956;" glyph-name="copyright" d="M512.023 960c-282.764 0-512.023-229.26-512.023-512s229.26-512 512.023-512 511.977 229.26 511.977 512-229.213 512-511.977 512zM512.023-17.408c-257.047 0-465.431 208.314-465.431 465.408s208.384 465.408 465.431 465.408c257.047 0 465.431-208.314 465.431-465.408s-208.384-465.408-465.431-465.408zM512.023 703.953c70.679 0 134.703-28.579 180.992-74.915l32.908 32.861c-54.714 54.737-130.374 88.646-213.9 88.646-167.098 0-302.545-135.494-302.545-302.545s135.447-302.545 302.545-302.545c83.526 0 159.185 33.908 213.9 88.646l-32.908 32.861c-46.289-46.313-110.313-74.915-180.992-74.915-141.382 0-256.023 114.572-256.023 255.953s114.641 255.953 256.023 255.953z" />
<glyph unicode="&#xe957;" glyph-name="facebook1" d="M564.8-64h-163.984c-27.391 0-49.672 22.281-49.672 49.672v369.875h-95.672c-27.391 0-49.672 22.289-49.672 49.672v158.492c0 27.391 22.281 49.672 49.672 49.672h95.672v79.367c0 78.695 24.711 145.648 71.453 193.609 46.953 48.18 112.57 73.641 189.758 73.641l125.062-0.203c27.344-0.047 49.586-22.328 49.586-49.672v-147.156c0-27.391-22.273-49.672-49.656-49.672l-84.203-0.031c-25.68 0-32.219-5.148-33.617-6.727-2.305-2.617-5.047-10.016-5.047-30.445v-62.703h116.539c8.773 0 17.273-2.164 24.578-6.242 15.758-8.805 25.555-25.453 25.555-43.445l-0.063-158.492c0-27.375-22.281-49.656-49.672-49.656h-116.937v-369.883c0-27.391-22.289-49.672-49.68-49.672v0zM411.175-3.969h143.266v386.391c0 18.289 14.883 33.164 33.164 33.164h133.453l0.055 137.766h-133.516c-18.281 0-33.156 14.875-33.156 33.164v89.578c0 23.453 2.383 50.125 20.086 70.172 21.391 24.234 55.102 27.031 78.602 27.031l73.844 0.031v126.453l-114.664 0.188c-124.047 0-201.133-79.406-201.133-207.219v-106.234c0-18.281-14.875-33.164-33.156-33.164h-112.188v-137.766h112.188c18.281 0 33.156-14.875 33.156-33.164v-386.391z" />
<glyph unicode="&#xe958;" d="M512-6.779c-14.575 0-28.638 5.333-39.583 15.021-41.37 36.547-81.249 70.876-116.44 101.159l-0.182 0.161c-103.162 88.804-192.25 165.495-254.236 241.036-69.279 84.46-101.558 164.53-101.558 252.001 0 85 28.854 163.403 81.237 220.798 53.009 58.073 125.736 90.057 204.823 90.057 59.108 0 113.243-18.871 160.893-56.096 24.041-18.791 45.841-41.787 65.047-68.611 19.206 26.824 41.006 49.821 65.058 68.611 47.65 37.225 101.774 56.096 160.882 56.096 79.087 0 151.825-31.984 204.834-90.057 52.383-57.395 81.226-135.798 81.226-220.798 0-87.471-32.267-167.541-101.558-251.989-61.986-75.553-151.063-152.232-254.202-241.025-35.26-30.341-75.196-64.727-116.656-101.354-10.945-9.677-25.008-15.009-39.583-15.009z" />
<glyph unicode="&#xe959;" d="M512.018 252.216h-0.034c-15.667 0-28.479 12.941-28.479 28.766v344.712c0 15.825 12.811 28.766 28.479 28.766h0.034c15.656 0 28.479-12.941 28.479-28.766v-344.712c0-15.825-12.823-28.766-28.479-28.766z" />
<glyph unicode="&#xe95a;" d="M312.889 453.319v0.034c0 15.825 12.811 28.766 28.479 28.766h341.265c15.667 0 28.479-12.941 28.479-28.766v-0.034c0-15.814-12.811-28.766-28.479-28.766h-341.265c-15.667 0-28.479 12.952-28.479 28.766z" />
<glyph unicode="&#xe95b;" glyph-name="instagram1" d="M150-64h724c82.711 0 150 67.289 150 150v724c0 82.711-67.289 150-150 150h-724c-82.711 0-150-67.289-150-150v-724c0-82.711 67.289-150 150-150zM60 810c0 49.625 40.375 90 90 90h724c49.625 0 90-40.375 90-90v-724c0-49.625-40.375-90-90-90h-724c-49.625 0-90 40.375-90 90v724zM512 178c148.875 0 270 121.125 270 270s-121.125 270-270 270c-148.875 0-270-121.125-270-270s121.125-270 270-270zM512 658c115.797 0 210-94.203 210-210s-94.203-210-210-210c-115.797 0-210 94.203-210 210s94.203 210 210 210zM812 658c49.625 0 90 40.375 90 90s-40.375 90-90 90c-49.625 0-90-40.375-90-90s40.375-90 90-90zM812 778c16.539 0 30-13.461 30-30s-13.461-30-30-30c-16.539 0-30 13.461-30 30s13.461 30 30 30z" />
<glyph unicode="&#xe95c;" glyph-name="lamp" d="M1022.862 234.098v0l-3.413 20.48-109.227 656.498h-796.444l-109.227-656.498-4.551-20.48h432.356v-160.427h-53.476v-88.747h267.378v88.747h-54.613v160.427h431.218zM143.36 875.804h735.004l80.782-481.28h-895.431l79.644 481.28zM43.236 269.369l18.204 88.747h901.12l18.204-88.747h-937.529zM609.849 38.4v-18.204h-195.698v18.204h195.698zM556.373 73.671h-88.747v160.427h88.747v-160.427z" />
<glyph unicode="&#xe95d;" glyph-name="list" d="M108.625 675.246c59.981 0 108.625 48.85 108.625 108.625s-48.644 108.831-108.625 108.831c-59.981 0-108.625-48.85-108.625-108.625s48.85-108.831 108.625-108.831zM108.625 842.203c32.155 0 58.126-26.177 58.126-58.126s-26.177-58.126-58.126-58.126c-31.948 0-58.126 26.177-58.126 58.126s26.177 58.126 58.126 58.126zM108.625 339.684c59.981 0 108.625 48.85 108.625 108.625s-48.644 108.625-108.625 108.625c-59.981 0-108.625-48.644-108.625-108.625s48.85-108.625 108.625-108.625zM108.625 506.435c32.155 0 58.126-26.177 58.126-58.126s-26.177-58.126-58.126-58.126c-31.948 0-58.126 25.971-58.126 58.126s26.177 58.126 58.126 58.126zM108.625 3.916c59.981 0 108.625 48.85 108.625 108.625 0 59.981-48.85 108.625-108.625 108.625s-108.625-48.85-108.625-108.625c0-59.775 48.85-108.625 108.625-108.625zM108.625 170.873c32.155 0 58.126-26.177 58.126-58.126 0-32.155-26.177-58.126-58.126-58.126s-58.126 26.177-58.126 58.126c0 31.948 26.177 58.126 58.126 58.126zM362.564 758.725h621.449c14.016 0 25.353 11.337 25.353 25.353s-11.337 25.353-25.353 25.353h-621.449c-14.016 0-25.353-11.337-25.353-25.353s11.337-25.353 25.353-25.353zM362.564 422.957h621.449c14.016 0 25.353 11.337 25.353 25.353s-11.337 25.353-25.353 25.353h-621.449c-14.016 0-25.353-11.337-25.353-25.353s11.337-25.353 25.353-25.353zM362.564 87.395h621.449c14.016 0 25.353 11.337 25.353 25.353s-11.337 25.353-25.353 25.353h-621.449c-14.016 0-25.353-11.337-25.353-25.353s11.337-25.353 25.353-25.353z" />
<glyph unicode="&#xe95e;" glyph-name="logout" d="M1011.328 472.522l-109.566 77.244c-19.852 13.994-47.29-0.256-47.29-24.52v-47.244h-526.080c-16.568 0-30.002-13.432-30.002-30.002s13.434-30 30.002-30h526.076v-47.242c0-24.424 27.584-38.408 47.288-24.52l109.566 77.244c16.732 11.788 17.070 36.984 0.006 49.040zM860.942 255.366c-14.338 8.292-32.694 3.396-40.992-10.948-70.472-121.832-202.206-203.622-352.744-203.622-224.532 0-407.204 182.672-407.204 407.204s182.672 407.204 407.204 407.204c150.638 0 282.312-81.866 352.742-203.618 8.296-14.344 26.656-19.238 40.992-10.948 14.342 8.296 19.242 26.65 10.948 40.992-81.052 140.116-232.43 233.576-404.682 233.576-258.226 0-467.206-208.958-467.206-467.206 0-258.226 208.958-467.206 467.206-467.206 172.326 0 323.666 93.526 404.684 233.58 8.294 14.342 3.394 32.694-10.948 40.992z" />
<glyph unicode="&#xe95f;" glyph-name="mail" d="M509.247 957.247c-279.728 0-506.495-226.766-506.495-506.495 0-279.739 226.766-506.495 506.495-506.495s506.495 226.755 506.495 506.495c0 279.728-226.766 506.495-506.495 506.495zM509.247-39.908c-270.556 0-490.661 220.105-490.661 490.661 0 270.567 220.105 490.672 490.661 490.672s490.661-220.105 490.661-490.672c0-270.556-220.105-490.661-490.661-490.661zM509.247 938.672c-269.037 0-487.908-218.883-487.908-487.919s218.872-487.908 487.908-487.908c269.037 0 487.908 218.872 487.908 487.908s-218.872 487.919-487.908 487.919zM509.247-42.661c-272.065 0-493.414 221.349-493.414 493.414 0 272.076 221.349 493.425 493.414 493.425s493.414-221.349 493.414-493.425c0-272.065-221.349-493.414-493.414-493.414zM509.247 954.495c-277.768 0-503.742-225.974-503.742-503.742s225.974-503.742 503.742-503.742c277.768 0 503.742 225.974 503.742 503.742s-225.974 503.742-503.742 503.742zM509.247-58.495c-280.796 0-509.247 228.451-509.247 509.247s228.451 509.247 509.247 509.247c280.796 0 509.247-228.451 509.247-509.247s-228.451-509.247-509.247-509.247zM758.553 659.957c20.37 0 36.974-16.846 36.974-37.514v-343.381c0-20.678-16.604-37.514-36.974-37.514h-479.794c-20.403 0-36.985 16.846-36.985 37.514v41.026c0 5.803 4.614 10.46 10.328 10.46 5.693 0 10.317-4.658 10.317-10.46v-41.026c0-9.139 7.311-16.571 16.34-16.571h479.794c9.029 0 16.329 7.432 16.329 16.571v343.381c0 9.161-7.311 16.571-16.329 16.571h-479.794c-9.029 0-16.34-7.41-16.34-16.571v-90.244c0-5.781-4.625-10.46-10.317-10.46-5.737 0.033-10.361 4.702-10.328 10.438 0 0.011 0 0.011 0 0.022v90.244c0 20.678 16.582 37.514 36.985 37.514h479.794zM518.65 412.259c-2.378 0-4.669 0.826-6.496 2.345l-220.083 181.457c-4.415 3.689-5.076 10.229-1.486 14.721 3.523 4.426 9.965 5.153 14.391 1.63 0.044-0.033 0.077-0.066 0.121-0.099l213.554-176.073 214.115 176.524c4.338 3.601 10.769 3.006 14.369-1.332 0.055-0.066 0.099-0.121 0.143-0.176 3.601-4.492 2.94-11.044-1.486-14.721l-220.633-181.931c-1.828-1.519-4.129-2.345-6.507-2.345zM241.796 306.578h20.59v237.7h-20.59z" />
<glyph unicode="&#xe960;" glyph-name="news" d="M1022.68 472.492c-0.091 3.504-0.603 6.872-1.024 9.091-12.584 80.077-73.557 89.941-132.483 99.453-53.669 8.658-114.517 18.466-170.030 74.024-55.671 55.683-65.49 116.531-74.194 170.2-9.512 58.709-19.319 119.467-99.624 132.437-3.243 0.558-6.315 1.024-7.851 0.853-8.533 0.978-17.033 1.445-25.475 1.445-282.328 0-512-229.672-512-512s229.672-512 512-512c282.328 0 512 229.672 512 512 0 8.579-0.432 16.771-1.32 24.496zM923.007 562.945c-0.99 3.538-2.856 6.747-5.461 9.341l-281.338 281.259c-2.606 2.606-5.848 4.483-9.398 5.461-37.239 10.365-75.856 15.656-114.813 15.656-235.258 0-426.667-191.397-426.667-426.667 0-235.258 191.408-426.655 426.667-426.655 235.27 0 426.667 191.397 426.667 426.655 0 39.094-5.245 77.744-15.656 114.95zM866.008 722.812c-13.483 12.846-27.056 25.737-40.232 38.958-13.141 13.141-25.953 26.624-38.707 39.982-67.106 70.44-136.533 143.269-241.789 155.989 47.104-7.6 47.536-77.483 57.515-139.264 9.262-57.094 20.742-128.171 86.187-193.582 65.274-65.274 136.329-76.754 193.411-85.97 61.952-9.99 131.971-10.672 139.423-58.163-12.447 105.518-85.322 174.945-155.807 242.051z" />
<glyph unicode="&#xe961;" glyph-name="cart" horiz-adv-x="1088" d="M460.8-6.82c-24.938 0-45.225 20.289-45.225 45.225 0 24.938 20.289 45.225 45.225 45.225s45.225-20.289 45.225-45.225c0-24.94-20.289-45.225-45.225-45.225zM460.8 140.8c-56.463 0-102.4-45.937-102.4-102.4s45.937-102.4 102.4-102.4c56.463 0 102.4 45.937 102.4 102.4-0.002 56.463-45.939 102.4-102.4 102.4zM768-6.82c-24.938 0-45.225 20.289-45.225 45.225 0 24.938 20.289 45.225 45.225 45.225 24.938 0 45.225-20.289 45.225-45.225 0-24.94-20.289-45.225-45.225-45.225zM768 140.8c-56.463 0-102.4-45.937-102.4-102.4s45.937-102.4 102.4-102.4c56.463 0 102.4 45.937 102.4 102.4-0.002 56.463-45.939 102.4-102.4 102.4zM948.55 374.685h-663.749l-73.838 360.103h811.425l-73.838-360.103zM1063.317 768.3c-10.067 12.415-24.986 19.533-40.927 19.533h-822.305l-16.607 80.997c-3.467 16.896-14.937 31.083-30.689 37.955l-115.872 50.532c-13.377 5.838-28.923-0.329-34.726-13.765-5.809-13.44 0.33-29.062 13.7-34.891l115.874-50.534 127.735-622.968c5.032-24.534 26.779-42.341 51.713-42.341h632.449c14.58 0 26.399 11.874 26.399 26.523s-11.819 26.523-26.399 26.523h-632.446l-15.538 75.779h652.873c24.931 0 46.681 17.807 51.71 42.341l73.842 360.105c3.215 15.681-0.716 31.798-10.786 44.211v0z" />
<glyph unicode="&#xe963;" d="M1024 245.812h-882.759v457.12h882.759v-457.12zM176.552 280.975h812.138v386.794h-812.138v-386.794z" />
<glyph unicode="&#xe964;" d="M158.897 122.741c-9.763 0-17.655 7.859-17.655 17.582v123.071c0 9.723 7.892 17.582 17.655 17.582s17.655-7.859 17.655-17.582v-123.071c0-9.723-7.892-17.582-17.655-17.582z" />
<glyph unicode="&#xe965;" d="M406.069 52.415c0-38.84-31.618-70.326-70.621-70.326s-70.621 31.486-70.621 70.326c0 38.84 31.618 70.326 70.621 70.326s70.621-31.486 70.621-70.326z" />
<glyph unicode="&#xe966;" d="M829.793 52.415c0-38.84-31.618-70.326-70.621-70.326s-70.621 31.486-70.621 70.326c0 38.84 31.618 70.326 70.621 70.326s70.621-31.486 70.621-70.326z" />
<glyph unicode="&#xe967;" d="M918.069 122.741h-759.172c-9.763 0-17.655 7.859-17.655 17.582s7.892 17.582 17.655 17.582h759.172c9.763 0 17.655-7.859 17.655-17.582s-7.892-17.582-17.655-17.582z" />
<glyph unicode="&#xe968;" d="M812.138 685.351c0-126.23-102.758-228.56-229.517-228.56s-229.517 102.33-229.517 228.56c0 126.23 102.758 228.56 229.517 228.56s229.517-102.33 229.517-228.56z" />
<glyph unicode="&#xe969;" d="M564.948 579.862c-3.99 0-7.98 1.336-11.299 4.061l-105.931 87.908c-7.486 6.224-8.492 17.3-2.26 24.772 6.25 7.455 17.337 8.439 24.876 2.25l105.931-87.908c7.486-6.224 8.492-17.3 2.26-24.772-3.496-4.167-8.51-6.312-13.577-6.312z" />
<glyph unicode="&#xe96a;" d="M564.966 579.862c-4.167 0-8.369 1.459-11.723 4.448-7.292 6.435-7.945 17.564-1.465 24.808l141.241 158.234c6.462 7.279 17.62 7.929 24.911 1.459 7.292-6.435 7.945-17.564 1.465-24.808l-141.241-158.234c-3.478-3.921-8.333-5.907-13.188-5.907z" />
<glyph unicode="&#xe96b;" d="M158.897 826.003h-88.276c-9.763 0-17.655 7.859-17.655 17.582s7.892 17.582 17.655 17.582h88.276c9.763 0 17.655-7.859 17.655-17.582s-7.892-17.582-17.655-17.582z" />
<glyph unicode="&#xe96c;" d="M158.897 667.769c-9.763 0-17.655 7.859-17.655 17.582v158.234c0 9.723 7.892 17.582 17.655 17.582s17.655-7.859 17.655-17.582v-158.234c0-9.723-7.892-17.582-17.655-17.582z" />
<glyph unicode="&#xe96d;" d="M105.931 843.585c0-29.13-23.713-52.745-52.966-52.745s-52.966 23.615-52.966 52.745c0 29.13 23.713 52.745 52.966 52.745s52.966-23.615 52.966-52.745z" />
<glyph unicode="&#xe96e;" glyph-name="save-money" d="M464.48 401.11c-1.892 0.421-3.785 0.421-5.677 0.21-19.134 2.313-33.643 18.503-33.853 37.848 0 9.252-7.57 16.821-16.821 16.821s-16.821-7.57-16.821-16.821c0-32.381 21.657-60.557 52.777-69.178v-16.821c0-9.252 7.57-16.821 16.821-16.821s16.821 7.57 16.821 16.821v15.77c35.956 7.57 60.347 41.002 56.562 77.589s-34.484 64.342-71.28 64.342c-21.027 0-38.058 17.032-38.058 38.058s17.032 38.058 38.058 38.058 38.058-17.032 38.058-38.058c0-9.252 7.57-16.821 16.821-16.821s16.821 7.57 16.821 16.821c0 33.853-23.76 63.29-56.982 70.229v15.349c0 9.252-7.57 16.821-16.821 16.821s-16.821-7.57-16.821-16.821v-16.401c-34.694-9.462-56.982-43.105-52.146-78.64s35.115-62.239 71.070-62.239c20.816 0 37.638-16.611 38.058-37.428 0.421-20.606-15.98-37.848-36.586-38.689zM219.519 492.787c0-134.571 109.129-243.489 243.489-243.489s243.489 109.129 243.489 243.489-109.129 243.489-243.489 243.489c-134.361 0-243.489-108.918-243.489-243.489zM463.008 702.844c116.067 0 210.057-93.989 210.057-210.057s-94.2-209.846-210.057-209.846-210.057 93.989-210.057 210.057c0.21 115.857 94.2 209.636 210.057 209.846zM789.342 207.875l-131.627-62.239c-18.083 33.853-52.987 55.3-91.466 56.352l-121.534 3.364c-19.134 0.631-38.058 5.467-55.3 14.298l-12.406 6.308c-63.29 33.012-138.776 32.802-201.856-0.21l0.841 27.966c0.21 9.252-7.149 17.032-16.401 17.242l-133.099 3.575c-9.252 0.21-17.032-7.149-17.242-16.401l-7.99-292.271c-0.21-9.252 7.149-17.032 16.401-17.242l133.73-3.575c9.041 0 16.611 7.149 16.821 16.401l0.421 14.088 34.694 18.503c13.667 7.359 29.437 9.041 44.366 4.836l206.692-58.034c0.421-0.21 0.631-0.21 1.051-0.21 14.929-3.154 30.068-4.626 45.418-4.626 32.381 0 64.342 6.939 93.569 20.396 0.631 0.421 1.472 0.631 2.103 1.051l299.63 193.866c7.359 4.836 9.883 14.719 5.467 22.288-22.499 39.53-71.701 54.669-112.283 34.274zM35.535-17.952l7.149 258.628 99.667-2.733-7.149-258.628-99.667 2.733zM579.075-13.536c-36.586-16.401-77.168-21.027-116.488-13.037l-206.062 57.823c-23.129 6.518-47.941 3.785-69.178-7.57l-17.662-9.462 4.836 171.998c55.931 37.217 127.842 41.002 187.558 10.093l12.406-6.308c21.657-11.144 45.418-17.242 69.809-18.083l121.534-3.364c34.063-1.051 63.080-25.232 70.019-58.664l-180.83 5.046c-9.252 0.21-17.032-7.149-17.242-16.401s7.149-17.032 16.401-17.242l200.174-5.467c9.041 0 16.611 7.149 16.821 16.401 0.21 7.359-0.421 14.508-1.682 21.868l134.991 63.711c0.21 0 0.21 0.21 0.421 0.21 19.134 9.672 42.264 6.518 58.034-8.2l-283.86-183.353z" />
<glyph unicode="&#xe96f;" glyph-name="shipped" d="M952.316 497.274l-26.518 106.070c7.25 1.54 12.69 7.972 12.69 15.678v17.102c0 37.132-30.21 67.34-67.34 67.34h-120.784v35.276c0 18.272-14.864 33.136-33.136 33.136h-615.684c-18.272 0-33.136-14.864-33.136-33.136v-290.74c0-8.854 7.178-16.034 16.034-16.034 8.854 0 16.034 7.178 16.034 16.034v290.74c0 0.59 0.478 1.068 1.068 1.068h615.682c0.59 0 1.068-0.478 1.068-1.068v-290.744c0-8.854 7.178-16.034 16.034-16.034 8.854 0 16.034 7.178 16.034 16.034v18.176h189.138c0.016 0 0.028-0.004 0.042-0.004 0.016 0 0.030 0.002 0.044 0.002 23.274-0.016 43.036-15.292 49.824-36.342h-49.856c-8.854 0-16.034-7.178-16.034-16.034v-34.204c0-27.702 22.536-50.238 50.238-50.238h18.172v-70.546h-41.924c-13.772 39.766-51.574 68.41-95.964 68.41s-82.194-28.644-95.964-68.41h-7.72v120.786c0 8.854-7.178 16.034-16.034 16.034-8.854 0-16.034-7.178-16.034-16.034v-120.782h-332.656c-13.772 39.766-51.574 68.41-95.964 68.41s-82.194-28.644-95.964-68.41h-92.162c-0.59 0-1.068 0.478-1.068 1.068v35.274h69.478c8.854 0 16.034 7.178 16.034 16.034s-7.178 16.034-16.034 16.034h-153.92c-8.854 0-16.034-7.178-16.034-16.034s7.178-16.034 16.034-16.034h52.376v-35.274c0-18.272 14.864-33.136 33.136-33.136h86.608c-0.004-0.356-0.028-0.71-0.028-1.068 0-55.992 45.554-101.544 101.544-101.544s101.544 45.552 101.544 101.544c0 0.36-0.024 0.712-0.028 1.068h361.34c-0.004-0.356-0.028-0.71-0.028-1.068 0-55.992 45.554-101.544 101.544-101.544s101.544 45.552 101.544 101.544c0 0.36-0.024 0.712-0.028 1.068h52.406c8.854 0 16.034 7.178 16.034 16.034v171.022c0.002 42.224-31.152 77.306-71.682 83.476zM750.364 671.398h120.784c19.45 0 35.274-15.824 35.274-35.274v-1.068h-156.058v36.342zM750.364 498.238v104.752h142.47l26.188-104.752h-168.658zM289.67 156.192c-38.31 0-69.478 31.166-69.478 69.478s31.168 69.478 69.478 69.478c38.31 0 69.478-31.166 69.478-69.478s-31.168-69.478-69.478-69.478zM854.046 156.192c-38.31 0-69.478 31.166-69.478 69.478s31.168 69.478 69.478 69.478c38.31 0 69.478-31.166 69.478-69.478s-31.168-69.478-69.478-69.478zM991.934 361.42h-18.172c-10.020 0-18.172 8.152-18.172 18.172v18.172h36.342v-36.344zM289.67 258.806c-18.272 0-33.136-14.864-33.136-33.136s14.864-33.136 33.136-33.136c18.272 0 33.136 14.864 33.136 33.136s-14.864 33.136-33.136 33.136zM854.046 258.806c-18.272 0-33.136-14.864-33.136-33.136s14.864-33.136 33.136-33.136c18.272 0 33.136 14.864 33.136 33.136s-14.864 33.136-33.136 33.136zM665.92 327.214h-239.432c-8.854 0-16.034-7.178-16.034-16.034s7.178-16.034 16.034-16.034h239.432c8.854 0 16.034 7.178 16.034 16.034s-7.178 16.034-16.034 16.034zM255.466 395.624h-205.228c-8.854 0-16.034-7.178-16.034-16.034s7.178-16.034 16.034-16.034h205.228c8.854 0 16.034 7.178 16.034 16.034s-7.18 16.034-16.034 16.034zM557.542 613.26c-6.26 6.26-16.414 6.26-22.674-0.002l-142.584-142.582-74.174 74.174c-6.262 6.262-16.414 6.262-22.674 0-6.262-6.262-6.262-16.412 0-22.674l85.512-85.512c3.13-3.132 7.234-4.696 11.336-4.696s8.208 1.564 11.336 4.696l153.92 153.92c6.262 6.264 6.262 16.414 0.002 22.676z" />
<glyph unicode="&#xe970;" glyph-name="shop" d="M976.936 62.194h-17.064v445.006c38.532 24.794 64.128 68.028 64.128 117.156 0 2.61-0.682 5.176-1.976 7.442l-119.026 208.296c-8.36 14.626-24.018 23.714-40.864 23.714h-700.268c-16.846 0-32.504-9.086-40.864-23.714l-119.026-208.296c-1.294-2.266-1.976-4.834-1.976-7.442 0-49.128 25.596-92.362 64.128-117.156v-445.006h-17.064c-8.284 0-15-6.716-15-15s6.716-15 15-15h929.872c8.286 0 15 6.716 15 15s-6.716 15-15 15zM31.034 609.356h48.088c8.284 0 15 6.716 15 15s-6.716 15-15 15h-38.274l106.202 185.854c3.032 5.304 8.708 8.598 14.816 8.598h700.268c6.108 0 11.786-3.294 14.816-8.598l106.2-185.854h-38.282c-8.286 0-15-6.716-15-15s6.714-15 15-15h48.096c-7.334-53.168-53.064-94.25-108.216-94.25-55.15 0-100.858 41.086-108.194 94.25h104.192c8.286 0 15 6.716 15 15s-6.714 15-15 15h-737.484c-8.284 0-15-6.716-15-15s6.716-15 15-15h104.182c-7.336-53.164-53.046-94.25-108.194-94.25-55.152 0-100.882 41.082-108.216 94.25zM744.444 609.356c-7.336-53.164-53.046-94.25-108.194-94.25-55.15 0-100.858 41.086-108.194 94.25h216.388zM495.944 609.356c-7.336-53.164-53.046-94.25-108.194-94.25s-100.858 41.086-108.194 94.25h216.388zM849.708 62.192h-162.386v50.162h162.386v-50.162zM849.708 142.354h-162.386v274.614h162.386v-274.614zM929.872 62.192h-50.162v369.776c0 8.284-6.714 15-15 15h-192.386c-8.286 0-15-6.716-15-15v-369.774h-563.196v430.458c14.162-4.866 29.33-7.546 45.122-7.546 54.19 0 101.248 31.112 124.25 76.414 23.002-45.3 70.060-76.414 124.25-76.414s101.248 31.112 124.25 76.414c23.002-45.3 70.060-76.414 124.25-76.414s101.248 31.112 124.25 76.414c23.002-45.3 70.060-76.414 124.25-76.414 15.792 0 30.96 2.68 45.122 7.544v-430.458zM592.162 446.968h-432.872c-8.284 0-15-6.716-15-15v-304.614c0-8.284 6.716-15 15-15h432.872c8.286 0 15 6.716 15 15v304.614c0 8.286-6.714 15-15 15zM577.162 142.354h-402.872v274.614h402.872v-274.614z" />
</font>
</defs>
</svg>
